<?xml version="1.0" encoding="utf-8" standalone="no"?>
<!DOCTYPE svg PUBLIC "-//W3C//DTD SVG 1.1//EN"
  "http://www.w3.org/Graphics/SVG/1.1/DTD/svg11.dtd">
<svg xmlns:xlink="http://www.w3.org/1999/xlink" width="1080pt" height="720pt" viewBox="0 0 1080 720" xmlns="http://www.w3.org/2000/svg" version="1.1">
 <metadata>
  <rdf:RDF xmlns:dc="http://purl.org/dc/elements/1.1/" xmlns:cc="http://creativecommons.org/ns#" xmlns:rdf="http://www.w3.org/1999/02/22-rdf-syntax-ns#">
   <cc:Work>
    <dc:type rdf:resource="http://purl.org/dc/dcmitype/StillImage"/>
    <dc:date>2025-09-30T12:36:41.064676</dc:date>
    <dc:format>image/svg+xml</dc:format>
    <dc:creator>
     <cc:Agent>
      <dc:title>Matplotlib v3.10.6, https://matplotlib.org/</dc:title>
     </cc:Agent>
    </dc:creator>
   </cc:Work>
  </rdf:RDF>
 </metadata>
 <defs>
  <style type="text/css">*{stroke-linejoin: round; stroke-linecap: butt}</style>
 </defs>
 <g id="figure_1">
  <g id="patch_1">
   <path d="M 0 720 
L 1080 720 
L 1080 0 
L 0 0 
z
" style="fill: #ffffff"/>
  </g>
  <g id="axes_1">
   <g id="patch_2">
    <path d="M 30.49 539.168 
L 172.51 539.168 
L 172.51 26.88 
L 30.49 26.88 
z
" style="fill: #ffffff"/>
   </g>
   <g id="patch_3">
    <path d="M 172.51 515.882182 
L 143.106273 515.882182 
L 143.106273 471.528242 
L 172.51 471.528242 
z
" clip-path="url(#pbf2ea7e09d)" style="fill: #808080; opacity: 0.5"/>
   </g>
   <g id="patch_4">
    <path d="M 172.51 471.528242 
L 172.51 471.528242 
L 172.51 427.174303 
L 172.51 427.174303 
z
" clip-path="url(#pbf2ea7e09d)" style="fill: #808080; opacity: 0.5"/>
   </g>
   <g id="patch_5">
    <path d="M 172.51 427.174303 
L 154.867764 427.174303 
L 154.867764 382.820364 
L 172.51 382.820364 
z
" clip-path="url(#pbf2ea7e09d)" style="fill: #808080; opacity: 0.5"/>
   </g>
   <g id="patch_6">
    <path d="M 172.51 382.820364 
L 154.867764 382.820364 
L 154.867764 338.466424 
L 172.51 338.466424 
z
" clip-path="url(#pbf2ea7e09d)" style="fill: #808080; opacity: 0.5"/>
   </g>
   <g id="patch_7">
    <path d="M 172.51 338.466424 
L 84.29882 338.466424 
L 84.29882 294.112485 
L 172.51 294.112485 
z
" clip-path="url(#pbf2ea7e09d)" style="fill: #808080; opacity: 0.5"/>
   </g>
   <g id="patch_8">
    <path d="M 172.51 294.112485 
L 43.133602 294.112485 
L 43.133602 249.758545 
L 172.51 249.758545 
z
" clip-path="url(#pbf2ea7e09d)" style="fill: #808080; opacity: 0.5"/>
   </g>
   <g id="patch_9">
    <path d="M 172.51 249.758545 
L 37.252857 249.758545 
L 37.252857 205.404606 
L 172.51 205.404606 
z
" clip-path="url(#pbf2ea7e09d)" style="fill: #808080; opacity: 0.5"/>
   </g>
   <g id="patch_10">
    <path d="M 172.51 205.404606 
L 72.537329 205.404606 
L 72.537329 161.050667 
L 172.51 161.050667 
z
" clip-path="url(#pbf2ea7e09d)" style="fill: #808080; opacity: 0.5"/>
   </g>
   <g id="patch_11">
    <path d="M 172.51 161.050667 
L 107.821801 161.050667 
L 107.821801 116.696727 
L 172.51 116.696727 
z
" clip-path="url(#pbf2ea7e09d)" style="fill: #808080; opacity: 0.5"/>
   </g>
   <g id="patch_12">
    <path d="M 172.51 116.696727 
L 125.464037 116.696727 
L 125.464037 72.342788 
L 172.51 72.342788 
z
" clip-path="url(#pbf2ea7e09d)" style="fill: #808080; opacity: 0.5"/>
   </g>
   <g id="matplotlib.axis_1"/>
   <g id="matplotlib.axis_2">
    <g id="ytick_1">
     <g id="line2d_1">
      <defs>
       <path id="me8b0821622" d="M 0 0 
L -3.5 0 
" style="stroke: #000000; stroke-width: 0.8"/>
      </defs>
      <g>
       <use xlink:href="#me8b0821622" x="30.49" y="494.972468" style="stroke: #000000; stroke-width: 0.8"/>
      </g>
     </g>
     <g id="text_1">
      <!-- 0 -->
      <g transform="translate(17.1275 498.771686) scale(0.1 -0.1)">
       <defs>
        <path id="DejaVuSans-30" d="M 2034 4250 
Q 1547 4250 1301 3770 
Q 1056 3291 1056 2328 
Q 1056 1369 1301 889 
Q 1547 409 2034 409 
Q 2525 409 2770 889 
Q 3016 1369 3016 2328 
Q 3016 3291 2770 3770 
Q 2525 4250 2034 4250 
z
M 2034 4750 
Q 2819 4750 3233 4129 
Q 3647 3509 3647 2328 
Q 3647 1150 3233 529 
Q 2819 -91 2034 -91 
Q 1250 -91 836 529 
Q 422 1150 422 2328 
Q 422 3509 836 4129 
Q 1250 4750 2034 4750 
z
" transform="scale(0.015625)"/>
       </defs>
       <use xlink:href="#DejaVuSans-30"/>
      </g>
     </g>
    </g>
    <g id="ytick_2">
     <g id="line2d_2">
      <g>
       <use xlink:href="#me8b0821622" x="30.49" y="399.928312" style="stroke: #000000; stroke-width: 0.8"/>
      </g>
     </g>
     <g id="text_2">
      <!-- 5 -->
      <g transform="translate(17.1275 403.72753) scale(0.1 -0.1)">
       <defs>
        <path id="DejaVuSans-35" d="M 691 4666 
L 3169 4666 
L 3169 4134 
L 1269 4134 
L 1269 2991 
Q 1406 3038 1543 3061 
Q 1681 3084 1819 3084 
Q 2600 3084 3056 2656 
Q 3513 2228 3513 1497 
Q 3513 744 3044 326 
Q 2575 -91 1722 -91 
Q 1428 -91 1123 -41 
Q 819 9 494 109 
L 494 744 
Q 775 591 1075 516 
Q 1375 441 1709 441 
Q 2250 441 2565 725 
Q 2881 1009 2881 1497 
Q 2881 1984 2565 2268 
Q 2250 2553 1709 2553 
Q 1456 2553 1204 2497 
Q 953 2441 691 2322 
L 691 4666 
z
" transform="scale(0.015625)"/>
       </defs>
       <use xlink:href="#DejaVuSans-35"/>
      </g>
     </g>
    </g>
    <g id="ytick_3">
     <g id="line2d_3">
      <g>
       <use xlink:href="#me8b0821622" x="30.49" y="304.884156" style="stroke: #000000; stroke-width: 0.8"/>
      </g>
     </g>
     <g id="text_3">
      <!-- 10 -->
      <g transform="translate(10.765 308.683375) scale(0.1 -0.1)">
       <defs>
        <path id="DejaVuSans-31" d="M 794 531 
L 1825 531 
L 1825 4091 
L 703 3866 
L 703 4441 
L 1819 4666 
L 2450 4666 
L 2450 531 
L 3481 531 
L 3481 0 
L 794 0 
L 794 531 
z
" transform="scale(0.015625)"/>
       </defs>
       <use xlink:href="#DejaVuSans-31"/>
       <use xlink:href="#DejaVuSans-30" transform="translate(63.623047 0)"/>
      </g>
     </g>
    </g>
    <g id="ytick_4">
     <g id="line2d_4">
      <g>
       <use xlink:href="#me8b0821622" x="30.49" y="209.84" style="stroke: #000000; stroke-width: 0.8"/>
      </g>
     </g>
     <g id="text_4">
      <!-- 15 -->
      <g transform="translate(10.765 213.639219) scale(0.1 -0.1)">
       <use xlink:href="#DejaVuSans-31"/>
       <use xlink:href="#DejaVuSans-35" transform="translate(63.623047 0)"/>
      </g>
     </g>
    </g>
    <g id="ytick_5">
     <g id="line2d_5">
      <g>
       <use xlink:href="#me8b0821622" x="30.49" y="114.795844" style="stroke: #000000; stroke-width: 0.8"/>
      </g>
     </g>
     <g id="text_5">
      <!-- 20 -->
      <g transform="translate(10.765 118.595063) scale(0.1 -0.1)">
       <defs>
        <path id="DejaVuSans-32" d="M 1228 531 
L 3431 531 
L 3431 0 
L 469 0 
L 469 531 
Q 828 903 1448 1529 
Q 2069 2156 2228 2338 
Q 2531 2678 2651 2914 
Q 2772 3150 2772 3378 
Q 2772 3750 2511 3984 
Q 2250 4219 1831 4219 
Q 1534 4219 1204 4116 
Q 875 4013 500 3803 
L 500 4441 
Q 881 4594 1212 4672 
Q 1544 4750 1819 4750 
Q 2544 4750 2975 4387 
Q 3406 4025 3406 3419 
Q 3406 3131 3298 2873 
Q 3191 2616 2906 2266 
Q 2828 2175 2409 1742 
Q 1991 1309 1228 531 
z
" transform="scale(0.015625)"/>
       </defs>
       <use xlink:href="#DejaVuSans-32"/>
       <use xlink:href="#DejaVuSans-30" transform="translate(63.623047 0)"/>
      </g>
     </g>
    </g>
   </g>
   <g id="line2d_6">
    <path d="M 160.765169 493.705212 
L 159.867609 487.483217 
L 159.300151 482.150078 
L 158.943282 476.816939 
L 158.806114 471.4838 
L 158.882921 466.150661 
L 159.21462 459.928665 
L 159.842522 452.817813 
L 161.238139 440.373822 
L 162.142149 431.485257 
L 162.634424 424.374405 
L 162.823478 418.15241 
L 162.776508 412.819271 
L 162.522649 407.486132 
L 162.055314 402.152993 
L 161.370824 396.819854 
L 160.464725 391.486715 
L 159.328427 386.153576 
L 157.946736 380.820437 
L 156.59159 376.376154 
L 155.033149 371.931872 
L 153.251636 367.487589 
L 151.225937 363.043306 
L 148.935286 358.599024 
L 146.361153 354.154741 
L 143.489137 349.710459 
L 140.310696 345.266176 
L 136.824536 340.821894 
L 133.037551 336.377611 
L 128.965251 331.933329 
L 123.736287 326.60019 
L 118.188006 321.267051 
L 111.406229 315.045055 
L 99.376203 304.378777 
L 88.437944 294.601356 
L 81.79148 288.37936 
L 76.41426 283.046221 
L 72.21793 278.601939 
L 68.322148 274.157656 
L 64.759819 269.713374 
L 62.167932 266.157948 
L 59.816598 262.602522 
L 57.713022 259.047096 
L 55.861426 255.49167 
L 54.263132 251.936244 
L 52.916727 248.380818 
L 51.818295 244.825392 
L 50.961713 241.269966 
L 50.338985 237.71454 
L 49.940589 234.159114 
L 49.755838 230.603688 
L 49.773206 227.048262 
L 49.980632 223.492836 
L 50.488372 219.048553 
L 51.249578 214.604271 
L 52.240369 210.159988 
L 53.437591 205.715706 
L 55.11577 200.382567 
L 57.024219 195.049428 
L 59.500529 188.827432 
L 62.208245 182.605437 
L 65.552291 175.494585 
L 69.147585 168.383733 
L 73.002249 161.272881 
L 76.607571 155.050885 
L 80.450652 148.82889 
L 84.544556 142.606894 
L 88.886853 136.384899 
L 94.121428 129.274047 
L 100.958613 120.385482 
L 115.41908 101.719495 
L 120.619297 94.608643 
L 125.529763 87.497791 
L 130.13336 80.386939 
L 134.453037 73.276087 
L 139.033762 65.276379 
L 143.864854 56.387814 
L 147.120806 50.165818 
L 147.120806 50.165818 
" clip-path="url(#pbf2ea7e09d)" style="fill: none; stroke: #ff0000; stroke-opacity: 0.3; stroke-width: 1.5; stroke-linecap: square"/>
   </g>
   <g id="line2d_7">
    <path d="M 170.99491 493.705212 
L 170.329012 482.150078 
L 169.49974 471.4838 
L 168.512828 461.706378 
L 167.387987 452.817813 
L 166.158357 444.818105 
L 164.692988 436.818396 
L 163.168519 429.707544 
L 161.413384 422.596692 
L 159.407163 415.48584 
L 157.430555 409.263845 
L 155.235133 403.041849 
L 152.810584 396.819854 
L 150.148481 390.597858 
L 147.242715 384.375863 
L 144.089929 378.153867 
L 140.689936 371.931872 
L 137.046121 365.709876 
L 133.165797 359.48788 
L 128.456568 352.377028 
L 123.478107 345.266176 
L 117.596133 337.266468 
L 110.780476 328.377903 
L 100.928142 315.933912 
L 86.144987 297.267925 
L 80.083436 289.268217 
L 74.961642 282.157365 
L 70.748771 275.935369 
L 67.377475 270.60223 
L 64.259652 265.269091 
L 61.424094 259.935952 
L 59.296091 255.49167 
L 57.396847 251.047387 
L 55.739145 246.603105 
L 54.334266 242.158822 
L 53.191853 237.71454 
L 52.319807 233.270257 
L 51.724193 228.825975 
L 51.449593 225.270549 
L 51.355839 221.715123 
L 51.443352 218.159697 
L 51.71174 214.604271 
L 52.1598 211.048845 
L 52.969409 206.604562 
L 54.050929 202.16028 
L 55.39687 197.715997 
L 56.997976 193.271715 
L 58.843328 188.827432 
L 60.920474 184.38315 
L 63.215561 179.938867 
L 66.236018 174.605728 
L 69.520418 169.272589 
L 73.645844 163.050594 
L 78.040038 156.828598 
L 83.325311 149.717746 
L 90.213828 140.829181 
L 103.667471 123.940908 
L 113.442301 111.496917 
L 120.153565 102.608352 
L 125.913368 94.608643 
L 130.765397 87.497791 
L 135.33542 80.386939 
L 139.086402 74.164944 
L 142.596334 67.942948 
L 145.860112 61.720953 
L 148.876369 55.498957 
L 151.26615 50.165818 
L 151.26615 50.165818 
" clip-path="url(#pbf2ea7e09d)" style="fill: none; stroke: #0000ff; stroke-width: 1.5; stroke-linecap: square"/>
   </g>
   <g id="patch_13">
    <path d="M 30.49 539.168 
L 30.49 26.88 
" style="fill: none; stroke: #000000; stroke-width: 0.8; stroke-linejoin: miter; stroke-linecap: square"/>
   </g>
   <g id="patch_14">
    <path d="M 172.51 539.168 
L 172.51 26.88 
" style="fill: none; stroke: #000000; stroke-width: 0.8; stroke-linejoin: miter; stroke-linecap: square"/>
   </g>
   <g id="patch_15">
    <path d="M 30.49 539.168 
L 172.51 539.168 
" style="fill: none; stroke: #000000; stroke-width: 0.8; stroke-linejoin: miter; stroke-linecap: square"/>
   </g>
   <g id="patch_16">
    <path d="M 30.49 26.88 
L 172.51 26.88 
" style="fill: none; stroke: #000000; stroke-width: 0.8; stroke-linejoin: miter; stroke-linecap: square"/>
   </g>
   <g id="legend_1">
    <g id="patch_17">
     <path d="M 37.49 534.168 
L 143.947812 534.168 
Q 145.947812 534.168 145.947812 532.168 
L 145.947812 489.133625 
Q 145.947812 487.133625 143.947812 487.133625 
L 37.49 487.133625 
Q 35.49 487.133625 35.49 489.133625 
L 35.49 532.168 
Q 35.49 534.168 37.49 534.168 
z
" style="fill: #ffffff; opacity: 0.8; stroke: #cccccc; stroke-linejoin: miter"/>
    </g>
    <g id="line2d_8">
     <path d="M 39.49 495.232063 
L 49.49 495.232063 
L 59.49 495.232063 
" style="fill: none; stroke: #ff0000; stroke-opacity: 0.3; stroke-width: 1.5; stroke-linecap: square"/>
    </g>
    <g id="text_6">
     <!-- KDE Estimate -->
     <g transform="translate(67.49 498.732063) scale(0.1 -0.1)">
      <defs>
       <path id="DejaVuSans-4b" d="M 628 4666 
L 1259 4666 
L 1259 2694 
L 3353 4666 
L 4166 4666 
L 1850 2491 
L 4331 0 
L 3500 0 
L 1259 2247 
L 1259 0 
L 628 0 
L 628 4666 
z
" transform="scale(0.015625)"/>
       <path id="DejaVuSans-44" d="M 1259 4147 
L 1259 519 
L 2022 519 
Q 2988 519 3436 956 
Q 3884 1394 3884 2338 
Q 3884 3275 3436 3711 
Q 2988 4147 2022 4147 
L 1259 4147 
z
M 628 4666 
L 1925 4666 
Q 3281 4666 3915 4102 
Q 4550 3538 4550 2338 
Q 4550 1131 3912 565 
Q 3275 0 1925 0 
L 628 0 
L 628 4666 
z
" transform="scale(0.015625)"/>
       <path id="DejaVuSans-45" d="M 628 4666 
L 3578 4666 
L 3578 4134 
L 1259 4134 
L 1259 2753 
L 3481 2753 
L 3481 2222 
L 1259 2222 
L 1259 531 
L 3634 531 
L 3634 0 
L 628 0 
L 628 4666 
z
" transform="scale(0.015625)"/>
       <path id="DejaVuSans-20" transform="scale(0.015625)"/>
       <path id="DejaVuSans-73" d="M 2834 3397 
L 2834 2853 
Q 2591 2978 2328 3040 
Q 2066 3103 1784 3103 
Q 1356 3103 1142 2972 
Q 928 2841 928 2578 
Q 928 2378 1081 2264 
Q 1234 2150 1697 2047 
L 1894 2003 
Q 2506 1872 2764 1633 
Q 3022 1394 3022 966 
Q 3022 478 2636 193 
Q 2250 -91 1575 -91 
Q 1294 -91 989 -36 
Q 684 19 347 128 
L 347 722 
Q 666 556 975 473 
Q 1284 391 1588 391 
Q 1994 391 2212 530 
Q 2431 669 2431 922 
Q 2431 1156 2273 1281 
Q 2116 1406 1581 1522 
L 1381 1569 
Q 847 1681 609 1914 
Q 372 2147 372 2553 
Q 372 3047 722 3315 
Q 1072 3584 1716 3584 
Q 2034 3584 2315 3537 
Q 2597 3491 2834 3397 
z
" transform="scale(0.015625)"/>
       <path id="DejaVuSans-74" d="M 1172 4494 
L 1172 3500 
L 2356 3500 
L 2356 3053 
L 1172 3053 
L 1172 1153 
Q 1172 725 1289 603 
Q 1406 481 1766 481 
L 2356 481 
L 2356 0 
L 1766 0 
Q 1100 0 847 248 
Q 594 497 594 1153 
L 594 3053 
L 172 3053 
L 172 3500 
L 594 3500 
L 594 4494 
L 1172 4494 
z
" transform="scale(0.015625)"/>
       <path id="DejaVuSans-69" d="M 603 3500 
L 1178 3500 
L 1178 0 
L 603 0 
L 603 3500 
z
M 603 4863 
L 1178 4863 
L 1178 4134 
L 603 4134 
L 603 4863 
z
" transform="scale(0.015625)"/>
       <path id="DejaVuSans-6d" d="M 3328 2828 
Q 3544 3216 3844 3400 
Q 4144 3584 4550 3584 
Q 5097 3584 5394 3201 
Q 5691 2819 5691 2113 
L 5691 0 
L 5113 0 
L 5113 2094 
Q 5113 2597 4934 2840 
Q 4756 3084 4391 3084 
Q 3944 3084 3684 2787 
Q 3425 2491 3425 1978 
L 3425 0 
L 2847 0 
L 2847 2094 
Q 2847 2600 2669 2842 
Q 2491 3084 2119 3084 
Q 1678 3084 1418 2786 
Q 1159 2488 1159 1978 
L 1159 0 
L 581 0 
L 581 3500 
L 1159 3500 
L 1159 2956 
Q 1356 3278 1631 3431 
Q 1906 3584 2284 3584 
Q 2666 3584 2933 3390 
Q 3200 3197 3328 2828 
z
" transform="scale(0.015625)"/>
       <path id="DejaVuSans-61" d="M 2194 1759 
Q 1497 1759 1228 1600 
Q 959 1441 959 1056 
Q 959 750 1161 570 
Q 1363 391 1709 391 
Q 2188 391 2477 730 
Q 2766 1069 2766 1631 
L 2766 1759 
L 2194 1759 
z
M 3341 1997 
L 3341 0 
L 2766 0 
L 2766 531 
Q 2569 213 2275 61 
Q 1981 -91 1556 -91 
Q 1019 -91 701 211 
Q 384 513 384 1019 
Q 384 1609 779 1909 
Q 1175 2209 1959 2209 
L 2766 2209 
L 2766 2266 
Q 2766 2663 2505 2880 
Q 2244 3097 1772 3097 
Q 1472 3097 1187 3025 
Q 903 2953 641 2809 
L 641 3341 
Q 956 3463 1253 3523 
Q 1550 3584 1831 3584 
Q 2591 3584 2966 3190 
Q 3341 2797 3341 1997 
z
" transform="scale(0.015625)"/>
       <path id="DejaVuSans-65" d="M 3597 1894 
L 3597 1613 
L 953 1613 
Q 991 1019 1311 708 
Q 1631 397 2203 397 
Q 2534 397 2845 478 
Q 3156 559 3463 722 
L 3463 178 
Q 3153 47 2828 -22 
Q 2503 -91 2169 -91 
Q 1331 -91 842 396 
Q 353 884 353 1716 
Q 353 2575 817 3079 
Q 1281 3584 2069 3584 
Q 2775 3584 3186 3129 
Q 3597 2675 3597 1894 
z
M 3022 2063 
Q 3016 2534 2758 2815 
Q 2500 3097 2075 3097 
Q 1594 3097 1305 2825 
Q 1016 2553 972 2059 
L 3022 2063 
z
" transform="scale(0.015625)"/>
      </defs>
      <use xlink:href="#DejaVuSans-4b"/>
      <use xlink:href="#DejaVuSans-44" transform="translate(65.576172 0)"/>
      <use xlink:href="#DejaVuSans-45" transform="translate(142.578125 0)"/>
      <use xlink:href="#DejaVuSans-20" transform="translate(205.761719 0)"/>
      <use xlink:href="#DejaVuSans-45" transform="translate(237.548828 0)"/>
      <use xlink:href="#DejaVuSans-73" transform="translate(300.732422 0)"/>
      <use xlink:href="#DejaVuSans-74" transform="translate(352.832031 0)"/>
      <use xlink:href="#DejaVuSans-69" transform="translate(392.041016 0)"/>
      <use xlink:href="#DejaVuSans-6d" transform="translate(419.824219 0)"/>
      <use xlink:href="#DejaVuSans-61" transform="translate(517.236328 0)"/>
      <use xlink:href="#DejaVuSans-74" transform="translate(578.515625 0)"/>
      <use xlink:href="#DejaVuSans-65" transform="translate(617.724609 0)"/>
     </g>
    </g>
    <g id="line2d_9">
     <path d="M 39.49 509.910188 
L 49.49 509.910188 
L 59.49 509.910188 
" style="fill: none; stroke: #0000ff; stroke-width: 1.5; stroke-linecap: square"/>
    </g>
    <g id="text_7">
     <!-- Norm estimate -->
     <g transform="translate(67.49 513.410188) scale(0.1 -0.1)">
      <defs>
       <path id="DejaVuSans-4e" d="M 628 4666 
L 1478 4666 
L 3547 763 
L 3547 4666 
L 4159 4666 
L 4159 0 
L 3309 0 
L 1241 3903 
L 1241 0 
L 628 0 
L 628 4666 
z
" transform="scale(0.015625)"/>
       <path id="DejaVuSans-6f" d="M 1959 3097 
Q 1497 3097 1228 2736 
Q 959 2375 959 1747 
Q 959 1119 1226 758 
Q 1494 397 1959 397 
Q 2419 397 2687 759 
Q 2956 1122 2956 1747 
Q 2956 2369 2687 2733 
Q 2419 3097 1959 3097 
z
M 1959 3584 
Q 2709 3584 3137 3096 
Q 3566 2609 3566 1747 
Q 3566 888 3137 398 
Q 2709 -91 1959 -91 
Q 1206 -91 779 398 
Q 353 888 353 1747 
Q 353 2609 779 3096 
Q 1206 3584 1959 3584 
z
" transform="scale(0.015625)"/>
       <path id="DejaVuSans-72" d="M 2631 2963 
Q 2534 3019 2420 3045 
Q 2306 3072 2169 3072 
Q 1681 3072 1420 2755 
Q 1159 2438 1159 1844 
L 1159 0 
L 581 0 
L 581 3500 
L 1159 3500 
L 1159 2956 
Q 1341 3275 1631 3429 
Q 1922 3584 2338 3584 
Q 2397 3584 2469 3576 
Q 2541 3569 2628 3553 
L 2631 2963 
z
" transform="scale(0.015625)"/>
      </defs>
      <use xlink:href="#DejaVuSans-4e"/>
      <use xlink:href="#DejaVuSans-6f" transform="translate(74.804688 0)"/>
      <use xlink:href="#DejaVuSans-72" transform="translate(135.986328 0)"/>
      <use xlink:href="#DejaVuSans-6d" transform="translate(175.349609 0)"/>
      <use xlink:href="#DejaVuSans-20" transform="translate(272.761719 0)"/>
      <use xlink:href="#DejaVuSans-65" transform="translate(304.548828 0)"/>
      <use xlink:href="#DejaVuSans-73" transform="translate(366.072266 0)"/>
      <use xlink:href="#DejaVuSans-74" transform="translate(418.171875 0)"/>
      <use xlink:href="#DejaVuSans-69" transform="translate(457.380859 0)"/>
      <use xlink:href="#DejaVuSans-6d" transform="translate(485.164062 0)"/>
      <use xlink:href="#DejaVuSans-61" transform="translate(582.576172 0)"/>
      <use xlink:href="#DejaVuSans-74" transform="translate(643.855469 0)"/>
      <use xlink:href="#DejaVuSans-65" transform="translate(683.064453 0)"/>
     </g>
    </g>
    <g id="patch_18">
     <path d="M 39.49 528.088313 
L 59.49 528.088313 
L 59.49 521.088313 
L 39.49 521.088313 
z
" style="fill: #808080; opacity: 0.5"/>
    </g>
    <g id="text_8">
     <!-- Histogram -->
     <g transform="translate(67.49 528.088313) scale(0.1 -0.1)">
      <defs>
       <path id="DejaVuSans-48" d="M 628 4666 
L 1259 4666 
L 1259 2753 
L 3553 2753 
L 3553 4666 
L 4184 4666 
L 4184 0 
L 3553 0 
L 3553 2222 
L 1259 2222 
L 1259 0 
L 628 0 
L 628 4666 
z
" transform="scale(0.015625)"/>
       <path id="DejaVuSans-67" d="M 2906 1791 
Q 2906 2416 2648 2759 
Q 2391 3103 1925 3103 
Q 1463 3103 1205 2759 
Q 947 2416 947 1791 
Q 947 1169 1205 825 
Q 1463 481 1925 481 
Q 2391 481 2648 825 
Q 2906 1169 2906 1791 
z
M 3481 434 
Q 3481 -459 3084 -895 
Q 2688 -1331 1869 -1331 
Q 1566 -1331 1297 -1286 
Q 1028 -1241 775 -1147 
L 775 -588 
Q 1028 -725 1275 -790 
Q 1522 -856 1778 -856 
Q 2344 -856 2625 -561 
Q 2906 -266 2906 331 
L 2906 616 
Q 2728 306 2450 153 
Q 2172 0 1784 0 
Q 1141 0 747 490 
Q 353 981 353 1791 
Q 353 2603 747 3093 
Q 1141 3584 1784 3584 
Q 2172 3584 2450 3431 
Q 2728 3278 2906 2969 
L 2906 3500 
L 3481 3500 
L 3481 434 
z
" transform="scale(0.015625)"/>
      </defs>
      <use xlink:href="#DejaVuSans-48"/>
      <use xlink:href="#DejaVuSans-69" transform="translate(75.195312 0)"/>
      <use xlink:href="#DejaVuSans-73" transform="translate(102.978516 0)"/>
      <use xlink:href="#DejaVuSans-74" transform="translate(155.078125 0)"/>
      <use xlink:href="#DejaVuSans-6f" transform="translate(194.287109 0)"/>
      <use xlink:href="#DejaVuSans-67" transform="translate(255.46875 0)"/>
      <use xlink:href="#DejaVuSans-72" transform="translate(318.945312 0)"/>
      <use xlink:href="#DejaVuSans-61" transform="translate(360.058594 0)"/>
      <use xlink:href="#DejaVuSans-6d" transform="translate(421.337891 0)"/>
     </g>
    </g>
   </g>
  </g>
  <g id="axes_2">
   <g id="patch_19">
    <path d="M 217.08 539.168 
L 1069.2 539.168 
L 1069.2 26.88 
L 217.08 26.88 
z
" style="fill: #ffffff"/>
   </g>
   <g id="PathCollection_1">
    <defs>
     <path id="m790169b2b5" d="M 0 5 
C 1.326016 5 2.597899 4.473168 3.535534 3.535534 
C 4.473168 2.597899 5 1.326016 5 0 
C 5 -1.326016 4.473168 -2.597899 3.535534 -3.535534 
C 2.597899 -4.473168 1.326016 -5 0 -5 
C -1.326016 -5 -2.597899 -4.473168 -3.535534 -3.535534 
C -4.473168 -2.597899 -5 -1.326016 -5 0 
C -5 1.326016 -4.473168 2.597899 -3.535534 3.535534 
C -2.597899 4.473168 -1.326016 5 0 5 
z
" style="stroke: #000000"/>
    </defs>
    <g clip-path="url(#pcba03faf91)">
     <use xlink:href="#m790169b2b5" x="457.896522" y="282.212647" style="fill: #ff0000; stroke: #000000"/>
     <use xlink:href="#m790169b2b5" x="525.257787" y="50.165818" style="fill: #ff0000; stroke: #000000"/>
     <use xlink:href="#m790169b2b5" x="395.026008" y="417.870794" style="fill: #ff0000; stroke: #000000"/>
     <use xlink:href="#m790169b2b5" x="395.026008" y="414.625384" style="fill: #ff0000; stroke: #000000"/>
     <use xlink:href="#m790169b2b5" x="457.896522" y="282.861729" style="fill: #ff0000; stroke: #000000"/>
     <use xlink:href="#m790169b2b5" x="448.91502" y="449.675814" style="fill: #ff0000; stroke: #000000"/>
     <use xlink:href="#m790169b2b5" x="489.331779" y="263.713809" style="fill: #ff0000; stroke: #000000"/>
     <use xlink:href="#m790169b2b5" x="523.012411" y="215.357197" style="fill: #ff0000; stroke: #000000"/>
     <use xlink:href="#m790169b2b5" x="554.447668" y="391.582971" style="fill: #ff0000; stroke: #000000"/>
     <use xlink:href="#m790169b2b5" x="857.57336" y="130.976532" style="fill: #ff0000; stroke: #000000"/>
     <use xlink:href="#m790169b2b5" x="514.030909" y="214.383574" style="fill: #ff0000; stroke: #000000"/>
     <use xlink:href="#m790169b2b5" x="531.993913" y="237.101446" style="fill: #ff0000; stroke: #000000"/>
     <use xlink:href="#m790169b2b5" x="442.178893" y="215.357197" style="fill: #ff0000; stroke: #000000"/>
     <use xlink:href="#m790169b2b5" x="534.239289" y="166.676044" style="fill: #ff0000; stroke: #000000"/>
     <use xlink:href="#m790169b2b5" x="529.748538" y="230.610625" style="fill: #ff0000; stroke: #000000"/>
     <use xlink:href="#m790169b2b5" x="509.540158" y="216.33082" style="fill: #ff0000; stroke: #000000"/>
     <use xlink:href="#m790169b2b5" x="507.294783" y="205.296426" style="fill: #ff0000; stroke: #000000"/>
     <use xlink:href="#m790169b2b5" x="397.271383" y="185.499424" style="fill: #ff0000; stroke: #000000"/>
     <use xlink:href="#m790169b2b5" x="433.197391" y="153.694404" style="fill: #ff0000; stroke: #000000"/>
     <use xlink:href="#m790169b2b5" x="520.767036" y="182.254013" style="fill: #ff0000; stroke: #000000"/>
     <use xlink:href="#m790169b2b5" x="489.331779" y="200.752851" style="fill: #ff0000; stroke: #000000"/>
     <use xlink:href="#m790169b2b5" x="480.350277" y="489.9189" style="fill: #ff0000; stroke: #000000"/>
     <use xlink:href="#m790169b2b5" x="496.067905" y="255.924825" style="fill: #ff0000; stroke: #000000"/>
     <use xlink:href="#m790169b2b5" x="417.479763" y="225.093428" style="fill: #ff0000; stroke: #000000"/>
     <use xlink:href="#m790169b2b5" x="484.841028" y="209.515459" style="fill: #ff0000; stroke: #000000"/>
     <use xlink:href="#m790169b2b5" x="534.239289" y="203.998262" style="fill: #ff0000; stroke: #000000"/>
     <use xlink:href="#m790169b2b5" x="518.52166" y="208.541836" style="fill: #ff0000; stroke: #000000"/>
     <use xlink:href="#m790169b2b5" x="412.989012" y="225.093428" style="fill: #ff0000; stroke: #000000"/>
     <use xlink:href="#m790169b2b5" x="453.405771" y="243.592266" style="fill: #ff0000; stroke: #000000"/>
     <use xlink:href="#m790169b2b5" x="390.535257" y="69.96282" style="fill: #ff0000; stroke: #000000"/>
     <use xlink:href="#m790169b2b5" x="475.859526" y="295.518829" style="fill: #ff0000; stroke: #000000"/>
     <use xlink:href="#m790169b2b5" x="255.812727" y="283.510812" style="fill: #ff0000; stroke: #000000"/>
     <use xlink:href="#m790169b2b5" x="523.012411" y="203.34918" style="fill: #ff0000; stroke: #000000"/>
     <use xlink:href="#m790169b2b5" x="520.767036" y="185.823965" style="fill: #ff0000; stroke: #000000"/>
     <use xlink:href="#m790169b2b5" x="457.896522" y="249.434004" style="fill: #ff0000; stroke: #000000"/>
     <use xlink:href="#m790169b2b5" x="543.220791" y="254.30212" style="fill: #ff0000; stroke: #000000"/>
     <use xlink:href="#m790169b2b5" x="478.104901" y="458.438421" style="fill: #ff0000; stroke: #000000"/>
     <use xlink:href="#m790169b2b5" x="505.049407" y="296.816993" style="fill: #ff0000; stroke: #000000"/>
     <use xlink:href="#m790169b2b5" x="455.651146" y="220.874395" style="fill: #ff0000; stroke: #000000"/>
     <use xlink:href="#m790169b2b5" x="552.202292" y="279.94086" style="fill: #ff0000; stroke: #000000"/>
     <use xlink:href="#m790169b2b5" x="801.438972" y="307.851388" style="fill: #ff0000; stroke: #000000"/>
     <use xlink:href="#m790169b2b5" x="505.049407" y="296.816993" style="fill: #ff0000; stroke: #000000"/>
     <use xlink:href="#m790169b2b5" x="493.82253" y="180.631308" style="fill: #ff0000; stroke: #000000"/>
     <use xlink:href="#m790169b2b5" x="505.049407" y="296.816993" style="fill: #ff0000; stroke: #000000"/>
     <use xlink:href="#m790169b2b5" x="484.841028" y="225.74251" style="fill: #ff0000; stroke: #000000"/>
     <use xlink:href="#m790169b2b5" x="538.73004" y="263.064727" style="fill: #ff0000; stroke: #000000"/>
     <use xlink:href="#m790169b2b5" x="469.123399" y="281.888106" style="fill: #ff0000; stroke: #000000"/>
     <use xlink:href="#m790169b2b5" x="446.669644" y="359.777951" style="fill: #ff0000; stroke: #000000"/>
     <use xlink:href="#m790169b2b5" x="462.387273" y="446.105863" style="fill: #ff0000; stroke: #000000"/>
     <use xlink:href="#m790169b2b5" x="648.753439" y="411.704514" style="fill: #ff0000; stroke: #000000"/>
     <use xlink:href="#m790169b2b5" x="585.882925" y="344.849064" style="fill: #ff0000; stroke: #000000"/>
     <use xlink:href="#m790169b2b5" x="500.558656" y="264.03835" style="fill: #ff0000; stroke: #000000"/>
     <use xlink:href="#m790169b2b5" x="534.239289" y="216.006279" style="fill: #ff0000; stroke: #000000"/>
     <use xlink:href="#m790169b2b5" x="864.309486" y="324.727521" style="fill: #ff0000; stroke: #000000"/>
     <use xlink:href="#m790169b2b5" x="489.331779" y="284.484435" style="fill: #ff0000; stroke: #000000"/>
     <use xlink:href="#m790169b2b5" x="545.466166" y="200.42831" style="fill: #ff0000; stroke: #000000"/>
     <use xlink:href="#m790169b2b5" x="536.484664" y="264.03835" style="fill: #ff0000; stroke: #000000"/>
     <use xlink:href="#m790169b2b5" x="500.558656" y="237.101446" style="fill: #ff0000; stroke: #000000"/>
     <use xlink:href="#m790169b2b5" x="502.804032" y="107.609579" style="fill: #ff0000; stroke: #000000"/>
     <use xlink:href="#m790169b2b5" x="446.669644" y="268.906466" style="fill: #ff0000; stroke: #000000"/>
     <use xlink:href="#m790169b2b5" x="448.91502" y="497.383344" style="fill: #ff0000; stroke: #000000"/>
     <use xlink:href="#m790169b2b5" x="480.350277" y="283.510812" style="fill: #ff0000; stroke: #000000"/>
     <use xlink:href="#m790169b2b5" x="552.202292" y="224.768887" style="fill: #ff0000; stroke: #000000"/>
     <use xlink:href="#m790169b2b5" x="457.896522" y="515.882182" style="fill: #ff0000; stroke: #000000"/>
     <use xlink:href="#m790169b2b5" x="514.030909" y="237.101446" style="fill: #ff0000; stroke: #000000"/>
     <use xlink:href="#m790169b2b5" x="518.52166" y="239.697774" style="fill: #ff0000; stroke: #000000"/>
     <use xlink:href="#m790169b2b5" x="466.878024" y="234.829659" style="fill: #ff0000; stroke: #000000"/>
     <use xlink:href="#m790169b2b5" x="592.619051" y="240.995938" style="fill: #ff0000; stroke: #000000"/>
     <use xlink:href="#m790169b2b5" x="556.693043" y="185.499424" style="fill: #ff0000; stroke: #000000"/>
     <use xlink:href="#m790169b2b5" x="489.331779" y="234.505118" style="fill: #ff0000; stroke: #000000"/>
     <use xlink:href="#m790169b2b5" x="471.368775" y="227.365215" style="fill: #ff0000; stroke: #000000"/>
     <use xlink:href="#m790169b2b5" x="509.540158" y="191.341162" style="fill: #ff0000; stroke: #000000"/>
     <use xlink:href="#m790169b2b5" x="464.632648" y="283.186271" style="fill: #ff0000; stroke: #000000"/>
     <use xlink:href="#m790169b2b5" x="444.424269" y="243.267725" style="fill: #ff0000; stroke: #000000"/>
     <use xlink:href="#m790169b2b5" x="489.331779" y="220.225313" style="fill: #ff0000; stroke: #000000"/>
     <use xlink:href="#m790169b2b5" x="592.619051" y="240.995938" style="fill: #ff0000; stroke: #000000"/>
     <use xlink:href="#m790169b2b5" x="478.104901" y="236.776905" style="fill: #ff0000; stroke: #000000"/>
     <use xlink:href="#m790169b2b5" x="464.632648" y="195.884736" style="fill: #ff0000; stroke: #000000"/>
     <use xlink:href="#m790169b2b5" x="462.387273" y="240.995938" style="fill: #ff0000; stroke: #000000"/>
     <use xlink:href="#m790169b2b5" x="1030.467273" y="279.616319" style="fill: #ff0000; stroke: #000000"/>
     <use xlink:href="#m790169b2b5" x="417.479763" y="454.219388" style="fill: #ff0000; stroke: #000000"/>
     <use xlink:href="#m790169b2b5" x="516.276285" y="299.413322" style="fill: #ff0000; stroke: #000000"/>
     <use xlink:href="#m790169b2b5" x="489.331779" y="200.42831" style="fill: #ff0000; stroke: #000000"/>
     <use xlink:href="#m790169b2b5" x="460.141897" y="209.84" style="fill: #ff0000; stroke: #000000"/>
     <use xlink:href="#m790169b2b5" x="446.669644" y="393.205676" style="fill: #ff0000; stroke: #000000"/>
     <use xlink:href="#m790169b2b5" x="505.049407" y="497.383344" style="fill: #ff0000; stroke: #000000"/>
     <use xlink:href="#m790169b2b5" x="496.067905" y="257.222989" style="fill: #ff0000; stroke: #000000"/>
     <use xlink:href="#m790169b2b5" x="491.577154" y="309.798634" style="fill: #ff0000; stroke: #000000"/>
     <use xlink:href="#m790169b2b5" x="453.405771" y="235.1542" style="fill: #ff0000; stroke: #000000"/>
     <use xlink:href="#m790169b2b5" x="435.442767" y="156.939814" style="fill: #ff0000; stroke: #000000"/>
     <use xlink:href="#m790169b2b5" x="269.28498" y="299.413322" style="fill: #ff0000; stroke: #000000"/>
     <use xlink:href="#m790169b2b5" x="496.067905" y="220.225313" style="fill: #ff0000; stroke: #000000"/>
     <use xlink:href="#m790169b2b5" x="269.28498" y="299.413322" style="fill: #ff0000; stroke: #000000"/>
     <use xlink:href="#m790169b2b5" x="453.405771" y="232.557871" style="fill: #ff0000; stroke: #000000"/>
     <use xlink:href="#m790169b2b5" x="567.919921" y="307.526847" style="fill: #ff0000; stroke: #000000"/>
     <use xlink:href="#m790169b2b5" x="558.938419" y="200.42831" style="fill: #ff0000; stroke: #000000"/>
     <use xlink:href="#m790169b2b5" x="576.901423" y="272.151876" style="fill: #ff0000; stroke: #000000"/>
     <use xlink:href="#m790169b2b5" x="421.970514" y="169.596914" style="fill: #ff0000; stroke: #000000"/>
     <use xlink:href="#m790169b2b5" x="502.804032" y="221.198936" style="fill: #ff0000; stroke: #000000"/>
     <use xlink:href="#m790169b2b5" x="527.503162" y="478.559965" style="fill: #ff0000; stroke: #000000"/>
     <use xlink:href="#m790169b2b5" x="484.841028" y="184.201259" style="fill: #ff0000; stroke: #000000"/>
     <use xlink:href="#m790169b2b5" x="511.785534" y="240.022315" style="fill: #ff0000; stroke: #000000"/>
     <use xlink:href="#m790169b2b5" x="518.52166" y="427.282483" style="fill: #ff0000; stroke: #000000"/>
     <use xlink:href="#m790169b2b5" x="525.257787" y="431.826058" style="fill: #ff0000; stroke: #000000"/>
     <use xlink:href="#m790169b2b5" x="624.054308" y="263.389268" style="fill: #ff0000; stroke: #000000"/>
     <use xlink:href="#m790169b2b5" x="388.289881" y="150.448993" style="fill: #ff0000; stroke: #000000"/>
     <use xlink:href="#m790169b2b5" x="498.313281" y="214.059033" style="fill: #ff0000; stroke: #000000"/>
     <use xlink:href="#m790169b2b5" x="480.350277" y="299.413322" style="fill: #ff0000; stroke: #000000"/>
     <use xlink:href="#m790169b2b5" x="496.067905" y="449.026732" style="fill: #ff0000; stroke: #000000"/>
     <use xlink:href="#m790169b2b5" x="500.558656" y="205.620967" style="fill: #ff0000; stroke: #000000"/>
     <use xlink:href="#m790169b2b5" x="473.61415" y="272.476417" style="fill: #ff0000; stroke: #000000"/>
     <use xlink:href="#m790169b2b5" x="457.896522" y="253.328497" style="fill: #ff0000; stroke: #000000"/>
     <use xlink:href="#m790169b2b5" x="518.52166" y="463.306537" style="fill: #ff0000; stroke: #000000"/>
     <use xlink:href="#m790169b2b5" x="529.748538" y="224.119805" style="fill: #ff0000; stroke: #000000"/>
     <use xlink:href="#m790169b2b5" x="392.780632" y="445.132239" style="fill: #ff0000; stroke: #000000"/>
     <use xlink:href="#m790169b2b5" x="570.165296" y="335.112834" style="fill: #ff0000; stroke: #000000"/>
     <use xlink:href="#m790169b2b5" x="419.725138" y="68.989197" style="fill: #ff0000; stroke: #000000"/>
     <use xlink:href="#m790169b2b5" x="453.405771" y="425.984319" style="fill: #ff0000; stroke: #000000"/>
     <use xlink:href="#m790169b2b5" x="536.484664" y="265.011973" style="fill: #ff0000; stroke: #000000"/>
    </g>
   </g>
   <g id="PathCollection_2">
    <defs>
     <path id="ma940a46afe" d="M 0 2.236068 
C 0.593012 2.236068 1.161816 2.000462 1.581139 1.581139 
C 2.000462 1.161816 2.236068 0.593012 2.236068 0 
C 2.236068 -0.593012 2.000462 -1.161816 1.581139 -1.581139 
C 1.161816 -2.000462 0.593012 -2.236068 0 -2.236068 
C -0.593012 -2.236068 -1.161816 -2.000462 -1.581139 -1.581139 
C -2.000462 -1.161816 -2.236068 -0.593012 -2.236068 0 
C -2.236068 0.593012 -2.000462 1.161816 -1.581139 1.581139 
C -1.161816 2.000462 -0.593012 2.236068 0 2.236068 
z
" style="stroke: #000000"/>
    </defs>
    <g clip-path="url(#pcba03faf91)">
     <use xlink:href="#ma940a46afe" x="523.012411" y="293.247042" style="fill: #808080; stroke: #000000"/>
     <use xlink:href="#ma940a46afe" x="547.711542" y="331.218341" style="fill: #808080; stroke: #000000"/>
     <use xlink:href="#ma940a46afe" x="529.748538" y="233.856035" style="fill: #808080; stroke: #000000"/>
     <use xlink:href="#ma940a46afe" x="549.956917" y="307.526847" style="fill: #808080; stroke: #000000"/>
     <use xlink:href="#ma940a46afe" x="547.711542" y="386.714856" style="fill: #808080; stroke: #000000"/>
     <use xlink:href="#ma940a46afe" x="549.956917" y="257.54753" style="fill: #808080; stroke: #000000"/>
     <use xlink:href="#ma940a46afe" x="543.220791" y="478.235424" style="fill: #808080; stroke: #000000"/>
     <use xlink:href="#ma940a46afe" x="549.956917" y="221.848018" style="fill: #808080; stroke: #000000"/>
     <use xlink:href="#ma940a46afe" x="538.73004" y="156.290732" style="fill: #808080; stroke: #000000"/>
     <use xlink:href="#ma940a46afe" x="514.030909" y="204.647344" style="fill: #808080; stroke: #000000"/>
     <use xlink:href="#ma940a46afe" x="552.202292" y="406.187317" style="fill: #808080; stroke: #000000"/>
     <use xlink:href="#ma940a46afe" x="538.73004" y="197.507441" style="fill: #808080; stroke: #000000"/>
     <use xlink:href="#ma940a46afe" x="534.239289" y="211.787246" style="fill: #808080; stroke: #000000"/>
     <use xlink:href="#ma940a46afe" x="540.975415" y="146.22996" style="fill: #808080; stroke: #000000"/>
     <use xlink:href="#ma940a46afe" x="545.466166" y="334.463752" style="fill: #808080; stroke: #000000"/>
     <use xlink:href="#ma940a46afe" x="527.503162" y="317.587619" style="fill: #808080; stroke: #000000"/>
     <use xlink:href="#ma940a46afe" x="540.975415" y="137.467353" style="fill: #808080; stroke: #000000"/>
     <use xlink:href="#ma940a46afe" x="523.012411" y="242.294102" style="fill: #808080; stroke: #000000"/>
     <use xlink:href="#ma940a46afe" x="556.693043" y="253.653038" style="fill: #808080; stroke: #000000"/>
     <use xlink:href="#ma940a46afe" x="525.257787" y="264.687432" style="fill: #808080; stroke: #000000"/>
     <use xlink:href="#ma940a46afe" x="549.956917" y="126.432958" style="fill: #808080; stroke: #000000"/>
     <use xlink:href="#ma940a46afe" x="536.484664" y="123.187548" style="fill: #808080; stroke: #000000"/>
     <use xlink:href="#ma940a46afe" x="520.767036" y="255.600284" style="fill: #808080; stroke: #000000"/>
     <use xlink:href="#ma940a46afe" x="502.804032" y="216.33082" style="fill: #808080; stroke: #000000"/>
     <use xlink:href="#ma940a46afe" x="529.748538" y="481.480834" style="fill: #808080; stroke: #000000"/>
     <use xlink:href="#ma940a46afe" x="523.012411" y="254.951202" style="fill: #808080; stroke: #000000"/>
     <use xlink:href="#ma940a46afe" x="518.52166" y="140.063681" style="fill: #808080; stroke: #000000"/>
     <use xlink:href="#ma940a46afe" x="534.239289" y="241.969561" style="fill: #808080; stroke: #000000"/>
     <use xlink:href="#ma940a46afe" x="558.938419" y="328.622013" style="fill: #808080; stroke: #000000"/>
     <use xlink:href="#ma940a46afe" x="534.239289" y="192.639326" style="fill: #808080; stroke: #000000"/>
     <use xlink:href="#ma940a46afe" x="529.748538" y="168.947831" style="fill: #808080; stroke: #000000"/>
     <use xlink:href="#ma940a46afe" x="554.447668" y="298.764239" style="fill: #808080; stroke: #000000"/>
     <use xlink:href="#ma940a46afe" x="554.447668" y="270.853712" style="fill: #808080; stroke: #000000"/>
     <use xlink:href="#ma940a46afe" x="536.484664" y="201.077392" style="fill: #808080; stroke: #000000"/>
     <use xlink:href="#ma940a46afe" x="523.012411" y="168.62329" style="fill: #808080; stroke: #000000"/>
     <use xlink:href="#ma940a46afe" x="552.202292" y="184.850341" style="fill: #808080; stroke: #000000"/>
     <use xlink:href="#ma940a46afe" x="520.767036" y="207.568213" style="fill: #808080; stroke: #000000"/>
     <use xlink:href="#ma940a46afe" x="536.484664" y="166.351503" style="fill: #808080; stroke: #000000"/>
     <use xlink:href="#ma940a46afe" x="543.220791" y="240.346856" style="fill: #808080; stroke: #000000"/>
     <use xlink:href="#ma940a46afe" x="527.503162" y="61.524754" style="fill: #808080; stroke: #000000"/>
     <use xlink:href="#ma940a46afe" x="534.239289" y="332.191965" style="fill: #808080; stroke: #000000"/>
     <use xlink:href="#ma940a46afe" x="520.767036" y="226.391592" style="fill: #808080; stroke: #000000"/>
     <use xlink:href="#ma940a46afe" x="540.975415" y="294.545206" style="fill: #808080; stroke: #000000"/>
     <use xlink:href="#ma940a46afe" x="529.748538" y="143.309091" style="fill: #808080; stroke: #000000"/>
     <use xlink:href="#ma940a46afe" x="534.239289" y="292.922501" style="fill: #808080; stroke: #000000"/>
     <use xlink:href="#ma940a46afe" x="549.956917" y="61.849295" style="fill: #808080; stroke: #000000"/>
     <use xlink:href="#ma940a46afe" x="534.239289" y="158.562519" style="fill: #808080; stroke: #000000"/>
     <use xlink:href="#ma940a46afe" x="570.165296" y="289.677091" style="fill: #808080; stroke: #000000"/>
     <use xlink:href="#ma940a46afe" x="538.73004" y="146.879042" style="fill: #808080; stroke: #000000"/>
     <use xlink:href="#ma940a46afe" x="540.975415" y="279.94086" style="fill: #808080; stroke: #000000"/>
     <use xlink:href="#ma940a46afe" x="531.993913" y="285.133517" style="fill: #808080; stroke: #000000"/>
     <use xlink:href="#ma940a46afe" x="543.220791" y="333.490129" style="fill: #808080; stroke: #000000"/>
     <use xlink:href="#ma940a46afe" x="518.52166" y="274.423663" style="fill: #808080; stroke: #000000"/>
     <use xlink:href="#ma940a46afe" x="531.993913" y="310.447716" style="fill: #808080; stroke: #000000"/>
     <use xlink:href="#ma940a46afe" x="540.975415" y="98.197889" style="fill: #808080; stroke: #000000"/>
     <use xlink:href="#ma940a46afe" x="547.711542" y="284.808976" style="fill: #808080; stroke: #000000"/>
     <use xlink:href="#ma940a46afe" x="531.993913" y="283.835353" style="fill: #808080; stroke: #000000"/>
     <use xlink:href="#ma940a46afe" x="536.484664" y="210.813623" style="fill: #808080; stroke: #000000"/>
     <use xlink:href="#ma940a46afe" x="545.466166" y="248.13584" style="fill: #808080; stroke: #000000"/>
     <use xlink:href="#ma940a46afe" x="529.748538" y="305.904142" style="fill: #808080; stroke: #000000"/>
     <use xlink:href="#ma940a46afe" x="536.484664" y="268.581925" style="fill: #808080; stroke: #000000"/>
     <use xlink:href="#ma940a46afe" x="523.012411" y="219.25169" style="fill: #808080; stroke: #000000"/>
     <use xlink:href="#ma940a46afe" x="523.012411" y="161.483388" style="fill: #808080; stroke: #000000"/>
     <use xlink:href="#ma940a46afe" x="523.012411" y="258.845694" style="fill: #808080; stroke: #000000"/>
     <use xlink:href="#ma940a46afe" x="523.012411" y="152.396239" style="fill: #808080; stroke: #000000"/>
     <use xlink:href="#ma940a46afe" x="545.466166" y="174.465029" style="fill: #808080; stroke: #000000"/>
     <use xlink:href="#ma940a46afe" x="520.767036" y="154.668027" style="fill: #808080; stroke: #000000"/>
     <use xlink:href="#ma940a46afe" x="545.466166" y="214.383574" style="fill: #808080; stroke: #000000"/>
     <use xlink:href="#ma940a46afe" x="547.711542" y="232.882412" style="fill: #808080; stroke: #000000"/>
     <use xlink:href="#ma940a46afe" x="540.975415" y="72.559149" style="fill: #808080; stroke: #000000"/>
     <use xlink:href="#ma940a46afe" x="534.239289" y="221.523477" style="fill: #808080; stroke: #000000"/>
     <use xlink:href="#ma940a46afe" x="518.52166" y="337.06008" style="fill: #808080; stroke: #000000"/>
     <use xlink:href="#ma940a46afe" x="525.257787" y="123.187548" style="fill: #808080; stroke: #000000"/>
     <use xlink:href="#ma940a46afe" x="509.540158" y="179.982226" style="fill: #808080; stroke: #000000"/>
     <use xlink:href="#ma940a46afe" x="525.257787" y="515.882182" style="fill: #808080; stroke: #000000"/>
     <use xlink:href="#ma940a46afe" x="556.693043" y="391.907512" style="fill: #808080; stroke: #000000"/>
     <use xlink:href="#ma940a46afe" x="507.294783" y="263.713809" style="fill: #808080; stroke: #000000"/>
     <use xlink:href="#ma940a46afe" x="520.767036" y="68.989197" style="fill: #808080; stroke: #000000"/>
     <use xlink:href="#ma940a46afe" x="514.030909" y="256.898448" style="fill: #808080; stroke: #000000"/>
     <use xlink:href="#ma940a46afe" x="536.484664" y="273.125499" style="fill: #808080; stroke: #000000"/>
     <use xlink:href="#ma940a46afe" x="523.012411" y="313.368585" style="fill: #808080; stroke: #000000"/>
     <use xlink:href="#ma940a46afe" x="500.558656" y="188.095752" style="fill: #808080; stroke: #000000"/>
     <use xlink:href="#ma940a46afe" x="520.767036" y="93.005233" style="fill: #808080; stroke: #000000"/>
     <use xlink:href="#ma940a46afe" x="527.503162" y="307.202306" style="fill: #808080; stroke: #000000"/>
     <use xlink:href="#ma940a46afe" x="540.975415" y="264.03835" style="fill: #808080; stroke: #000000"/>
     <use xlink:href="#ma940a46afe" x="538.73004" y="99.496053" style="fill: #808080; stroke: #000000"/>
     <use xlink:href="#ma940a46afe" x="520.767036" y="159.536142" style="fill: #808080; stroke: #000000"/>
     <use xlink:href="#ma940a46afe" x="511.785534" y="239.373233" style="fill: #808080; stroke: #000000"/>
     <use xlink:href="#ma940a46afe" x="518.52166" y="283.186271" style="fill: #808080; stroke: #000000"/>
     <use xlink:href="#ma940a46afe" x="527.503162" y="176.736816" style="fill: #808080; stroke: #000000"/>
     <use xlink:href="#ma940a46afe" x="516.276285" y="209.84" style="fill: #808080; stroke: #000000"/>
     <use xlink:href="#ma940a46afe" x="538.73004" y="71.585525" style="fill: #808080; stroke: #000000"/>
     <use xlink:href="#ma940a46afe" x="525.257787" y="114.42494" style="fill: #808080; stroke: #000000"/>
     <use xlink:href="#ma940a46afe" x="520.767036" y="339.980949" style="fill: #808080; stroke: #000000"/>
     <use xlink:href="#ma940a46afe" x="531.993913" y="197.831982" style="fill: #808080; stroke: #000000"/>
     <use xlink:href="#ma940a46afe" x="509.540158" y="134.546483" style="fill: #808080; stroke: #000000"/>
     <use xlink:href="#ma940a46afe" x="567.919921" y="231.259707" style="fill: #808080; stroke: #000000"/>
     <use xlink:href="#ma940a46afe" x="511.785534" y="209.515459" style="fill: #808080; stroke: #000000"/>
     <use xlink:href="#ma940a46afe" x="509.540158" y="236.452364" style="fill: #808080; stroke: #000000"/>
     <use xlink:href="#ma940a46afe" x="509.540158" y="212.436328" style="fill: #808080; stroke: #000000"/>
     <use xlink:href="#ma940a46afe" x="525.257787" y="283.510812" style="fill: #808080; stroke: #000000"/>
     <use xlink:href="#ma940a46afe" x="525.257787" y="258.196612" style="fill: #808080; stroke: #000000"/>
     <use xlink:href="#ma940a46afe" x="487.086403" y="276.69545" style="fill: #808080; stroke: #000000"/>
     <use xlink:href="#ma940a46afe" x="520.767036" y="499.006049" style="fill: #808080; stroke: #000000"/>
     <use xlink:href="#ma940a46afe" x="525.257787" y="500.953295" style="fill: #808080; stroke: #000000"/>
     <use xlink:href="#ma940a46afe" x="527.503162" y="157.913437" style="fill: #808080; stroke: #000000"/>
     <use xlink:href="#ma940a46afe" x="540.975415" y="205.296426" style="fill: #808080; stroke: #000000"/>
    </g>
   </g>
   <g id="matplotlib.axis_3">
    <g id="xtick_1">
     <g id="line2d_10">
      <path d="M 253.567352 539.168 
L 253.567352 26.88 
" clip-path="url(#pcba03faf91)" style="fill: none; stroke: #b0b0b0; stroke-width: 0.8; stroke-linecap: square"/>
     </g>
     <g id="line2d_11">
      <defs>
       <path id="m86f63785db" d="M 0 0 
L 0 3.5 
" style="stroke: #000000; stroke-width: 0.8"/>
      </defs>
      <g>
       <use xlink:href="#m86f63785db" x="253.567352" y="539.168" style="stroke: #000000; stroke-width: 0.8"/>
      </g>
     </g>
     <g id="text_9">
      <!-- 0 -->
      <g transform="translate(250.386102 553.766438) scale(0.1 -0.1)">
       <use xlink:href="#DejaVuSans-30"/>
      </g>
     </g>
    </g>
    <g id="xtick_2">
     <g id="line2d_12">
      <path d="M 365.836126 539.168 
L 365.836126 26.88 
" clip-path="url(#pcba03faf91)" style="fill: none; stroke: #b0b0b0; stroke-width: 0.8; stroke-linecap: square"/>
     </g>
     <g id="line2d_13">
      <g>
       <use xlink:href="#m86f63785db" x="365.836126" y="539.168" style="stroke: #000000; stroke-width: 0.8"/>
      </g>
     </g>
     <g id="text_10">
      <!-- 50 -->
      <g transform="translate(359.473626 553.766438) scale(0.1 -0.1)">
       <use xlink:href="#DejaVuSans-35"/>
       <use xlink:href="#DejaVuSans-30" transform="translate(63.623047 0)"/>
      </g>
     </g>
    </g>
    <g id="xtick_3">
     <g id="line2d_14">
      <path d="M 478.104901 539.168 
L 478.104901 26.88 
" clip-path="url(#pcba03faf91)" style="fill: none; stroke: #b0b0b0; stroke-width: 0.8; stroke-linecap: square"/>
     </g>
     <g id="line2d_15">
      <g>
       <use xlink:href="#m86f63785db" x="478.104901" y="539.168" style="stroke: #000000; stroke-width: 0.8"/>
      </g>
     </g>
     <g id="text_11">
      <!-- 100 -->
      <g transform="translate(468.561151 553.766438) scale(0.1 -0.1)">
       <use xlink:href="#DejaVuSans-31"/>
       <use xlink:href="#DejaVuSans-30" transform="translate(63.623047 0)"/>
       <use xlink:href="#DejaVuSans-30" transform="translate(127.246094 0)"/>
      </g>
     </g>
    </g>
    <g id="xtick_4">
     <g id="line2d_16">
      <path d="M 590.373676 539.168 
L 590.373676 26.88 
" clip-path="url(#pcba03faf91)" style="fill: none; stroke: #b0b0b0; stroke-width: 0.8; stroke-linecap: square"/>
     </g>
     <g id="line2d_17">
      <g>
       <use xlink:href="#m86f63785db" x="590.373676" y="539.168" style="stroke: #000000; stroke-width: 0.8"/>
      </g>
     </g>
     <g id="text_12">
      <!-- 150 -->
      <g transform="translate(580.829926 553.766438) scale(0.1 -0.1)">
       <use xlink:href="#DejaVuSans-31"/>
       <use xlink:href="#DejaVuSans-35" transform="translate(63.623047 0)"/>
       <use xlink:href="#DejaVuSans-30" transform="translate(127.246094 0)"/>
      </g>
     </g>
    </g>
    <g id="xtick_5">
     <g id="line2d_18">
      <path d="M 702.642451 539.168 
L 702.642451 26.88 
" clip-path="url(#pcba03faf91)" style="fill: none; stroke: #b0b0b0; stroke-width: 0.8; stroke-linecap: square"/>
     </g>
     <g id="line2d_19">
      <g>
       <use xlink:href="#m86f63785db" x="702.642451" y="539.168" style="stroke: #000000; stroke-width: 0.8"/>
      </g>
     </g>
     <g id="text_13">
      <!-- 200 -->
      <g transform="translate(693.098701 553.766438) scale(0.1 -0.1)">
       <use xlink:href="#DejaVuSans-32"/>
       <use xlink:href="#DejaVuSans-30" transform="translate(63.623047 0)"/>
       <use xlink:href="#DejaVuSans-30" transform="translate(127.246094 0)"/>
      </g>
     </g>
    </g>
    <g id="xtick_6">
     <g id="line2d_20">
      <path d="M 814.911225 539.168 
L 814.911225 26.88 
" clip-path="url(#pcba03faf91)" style="fill: none; stroke: #b0b0b0; stroke-width: 0.8; stroke-linecap: square"/>
     </g>
     <g id="line2d_21">
      <g>
       <use xlink:href="#m86f63785db" x="814.911225" y="539.168" style="stroke: #000000; stroke-width: 0.8"/>
      </g>
     </g>
     <g id="text_14">
      <!-- 250 -->
      <g transform="translate(805.367475 553.766438) scale(0.1 -0.1)">
       <use xlink:href="#DejaVuSans-32"/>
       <use xlink:href="#DejaVuSans-35" transform="translate(63.623047 0)"/>
       <use xlink:href="#DejaVuSans-30" transform="translate(127.246094 0)"/>
      </g>
     </g>
    </g>
    <g id="xtick_7">
     <g id="line2d_22">
      <path d="M 927.18 539.168 
L 927.18 26.88 
" clip-path="url(#pcba03faf91)" style="fill: none; stroke: #b0b0b0; stroke-width: 0.8; stroke-linecap: square"/>
     </g>
     <g id="line2d_23">
      <g>
       <use xlink:href="#m86f63785db" x="927.18" y="539.168" style="stroke: #000000; stroke-width: 0.8"/>
      </g>
     </g>
     <g id="text_15">
      <!-- 300 -->
      <g transform="translate(917.63625 553.766438) scale(0.1 -0.1)">
       <defs>
        <path id="DejaVuSans-33" d="M 2597 2516 
Q 3050 2419 3304 2112 
Q 3559 1806 3559 1356 
Q 3559 666 3084 287 
Q 2609 -91 1734 -91 
Q 1441 -91 1130 -33 
Q 819 25 488 141 
L 488 750 
Q 750 597 1062 519 
Q 1375 441 1716 441 
Q 2309 441 2620 675 
Q 2931 909 2931 1356 
Q 2931 1769 2642 2001 
Q 2353 2234 1838 2234 
L 1294 2234 
L 1294 2753 
L 1863 2753 
Q 2328 2753 2575 2939 
Q 2822 3125 2822 3475 
Q 2822 3834 2567 4026 
Q 2313 4219 1838 4219 
Q 1578 4219 1281 4162 
Q 984 4106 628 3988 
L 628 4550 
Q 988 4650 1302 4700 
Q 1616 4750 1894 4750 
Q 2613 4750 3031 4423 
Q 3450 4097 3450 3541 
Q 3450 3153 3228 2886 
Q 3006 2619 2597 2516 
z
" transform="scale(0.015625)"/>
       </defs>
       <use xlink:href="#DejaVuSans-33"/>
       <use xlink:href="#DejaVuSans-30" transform="translate(63.623047 0)"/>
       <use xlink:href="#DejaVuSans-30" transform="translate(127.246094 0)"/>
      </g>
     </g>
    </g>
    <g id="xtick_8">
     <g id="line2d_24">
      <path d="M 1039.448775 539.168 
L 1039.448775 26.88 
" clip-path="url(#pcba03faf91)" style="fill: none; stroke: #b0b0b0; stroke-width: 0.8; stroke-linecap: square"/>
     </g>
     <g id="line2d_25">
      <g>
       <use xlink:href="#m86f63785db" x="1039.448775" y="539.168" style="stroke: #000000; stroke-width: 0.8"/>
      </g>
     </g>
     <g id="text_16">
      <!-- 350 -->
      <g transform="translate(1029.905025 553.766438) scale(0.1 -0.1)">
       <use xlink:href="#DejaVuSans-33"/>
       <use xlink:href="#DejaVuSans-35" transform="translate(63.623047 0)"/>
       <use xlink:href="#DejaVuSans-30" transform="translate(127.246094 0)"/>
      </g>
     </g>
    </g>
    <g id="text_17">
     <!-- Day of Year -->
     <g transform="translate(614.681406 567.444563) scale(0.1 -0.1)">
      <defs>
       <path id="DejaVuSans-79" d="M 2059 -325 
Q 1816 -950 1584 -1140 
Q 1353 -1331 966 -1331 
L 506 -1331 
L 506 -850 
L 844 -850 
Q 1081 -850 1212 -737 
Q 1344 -625 1503 -206 
L 1606 56 
L 191 3500 
L 800 3500 
L 1894 763 
L 2988 3500 
L 3597 3500 
L 2059 -325 
z
" transform="scale(0.015625)"/>
       <path id="DejaVuSans-66" d="M 2375 4863 
L 2375 4384 
L 1825 4384 
Q 1516 4384 1395 4259 
Q 1275 4134 1275 3809 
L 1275 3500 
L 2222 3500 
L 2222 3053 
L 1275 3053 
L 1275 0 
L 697 0 
L 697 3053 
L 147 3053 
L 147 3500 
L 697 3500 
L 697 3744 
Q 697 4328 969 4595 
Q 1241 4863 1831 4863 
L 2375 4863 
z
" transform="scale(0.015625)"/>
       <path id="DejaVuSans-59" d="M -13 4666 
L 666 4666 
L 1959 2747 
L 3244 4666 
L 3922 4666 
L 2272 2222 
L 2272 0 
L 1638 0 
L 1638 2222 
L -13 4666 
z
" transform="scale(0.015625)"/>
      </defs>
      <use xlink:href="#DejaVuSans-44"/>
      <use xlink:href="#DejaVuSans-61" transform="translate(77.001953 0)"/>
      <use xlink:href="#DejaVuSans-79" transform="translate(138.28125 0)"/>
      <use xlink:href="#DejaVuSans-20" transform="translate(197.460938 0)"/>
      <use xlink:href="#DejaVuSans-6f" transform="translate(229.248047 0)"/>
      <use xlink:href="#DejaVuSans-66" transform="translate(290.429688 0)"/>
      <use xlink:href="#DejaVuSans-20" transform="translate(325.634766 0)"/>
      <use xlink:href="#DejaVuSans-59" transform="translate(357.421875 0)"/>
      <use xlink:href="#DejaVuSans-65" transform="translate(405.255859 0)"/>
      <use xlink:href="#DejaVuSans-61" transform="translate(466.779297 0)"/>
      <use xlink:href="#DejaVuSans-72" transform="translate(528.058594 0)"/>
     </g>
    </g>
   </g>
   <g id="matplotlib.axis_4">
    <g id="ytick_6">
     <g id="line2d_26">
      <path d="M 217.08 517.180346 
L 1069.2 517.180346 
" clip-path="url(#pcba03faf91)" style="fill: none; stroke: #b0b0b0; stroke-width: 0.8; stroke-linecap: square"/>
     </g>
     <g id="line2d_27">
      <g>
       <use xlink:href="#me8b0821622" x="217.08" y="517.180346" style="stroke: #000000; stroke-width: 0.8"/>
      </g>
     </g>
     <g id="text_18">
      <!-- 0 -->
      <g transform="translate(203.7175 520.979565) scale(0.1 -0.1)">
       <use xlink:href="#DejaVuSans-30"/>
      </g>
     </g>
    </g>
    <g id="ytick_7">
     <g id="line2d_28">
      <path d="M 217.08 419.81804 
L 1069.2 419.81804 
" clip-path="url(#pcba03faf91)" style="fill: none; stroke: #b0b0b0; stroke-width: 0.8; stroke-linecap: square"/>
     </g>
     <g id="line2d_29">
      <g>
       <use xlink:href="#me8b0821622" x="217.08" y="419.81804" style="stroke: #000000; stroke-width: 0.8"/>
      </g>
     </g>
     <g id="text_19">
      <!-- 5 -->
      <g transform="translate(203.7175 423.617259) scale(0.1 -0.1)">
       <use xlink:href="#DejaVuSans-35"/>
      </g>
     </g>
    </g>
    <g id="ytick_8">
     <g id="line2d_30">
      <path d="M 217.08 322.455734 
L 1069.2 322.455734 
" clip-path="url(#pcba03faf91)" style="fill: none; stroke: #b0b0b0; stroke-width: 0.8; stroke-linecap: square"/>
     </g>
     <g id="line2d_31">
      <g>
       <use xlink:href="#me8b0821622" x="217.08" y="322.455734" style="stroke: #000000; stroke-width: 0.8"/>
      </g>
     </g>
     <g id="text_20">
      <!-- 10 -->
      <g transform="translate(197.355 326.254953) scale(0.1 -0.1)">
       <use xlink:href="#DejaVuSans-31"/>
       <use xlink:href="#DejaVuSans-30" transform="translate(63.623047 0)"/>
      </g>
     </g>
    </g>
    <g id="ytick_9">
     <g id="line2d_32">
      <path d="M 217.08 225.093428 
L 1069.2 225.093428 
" clip-path="url(#pcba03faf91)" style="fill: none; stroke: #b0b0b0; stroke-width: 0.8; stroke-linecap: square"/>
     </g>
     <g id="line2d_33">
      <g>
       <use xlink:href="#me8b0821622" x="217.08" y="225.093428" style="stroke: #000000; stroke-width: 0.8"/>
      </g>
     </g>
     <g id="text_21">
      <!-- 15 -->
      <g transform="translate(197.355 228.892647) scale(0.1 -0.1)">
       <use xlink:href="#DejaVuSans-31"/>
       <use xlink:href="#DejaVuSans-35" transform="translate(63.623047 0)"/>
      </g>
     </g>
    </g>
    <g id="ytick_10">
     <g id="line2d_34">
      <path d="M 217.08 127.731122 
L 1069.2 127.731122 
" clip-path="url(#pcba03faf91)" style="fill: none; stroke: #b0b0b0; stroke-width: 0.8; stroke-linecap: square"/>
     </g>
     <g id="line2d_35">
      <g>
       <use xlink:href="#me8b0821622" x="217.08" y="127.731122" style="stroke: #000000; stroke-width: 0.8"/>
      </g>
     </g>
     <g id="text_22">
      <!-- 20 -->
      <g transform="translate(197.355 131.530341) scale(0.1 -0.1)">
       <use xlink:href="#DejaVuSans-32"/>
       <use xlink:href="#DejaVuSans-30" transform="translate(63.623047 0)"/>
      </g>
     </g>
    </g>
    <g id="ytick_11">
     <g id="line2d_36">
      <path d="M 217.08 30.368816 
L 1069.2 30.368816 
" clip-path="url(#pcba03faf91)" style="fill: none; stroke: #b0b0b0; stroke-width: 0.8; stroke-linecap: square"/>
     </g>
     <g id="line2d_37">
      <g>
       <use xlink:href="#me8b0821622" x="217.08" y="30.368816" style="stroke: #000000; stroke-width: 0.8"/>
      </g>
     </g>
     <g id="text_23">
      <!-- 25 -->
      <g transform="translate(197.355 34.168035) scale(0.1 -0.1)">
       <use xlink:href="#DejaVuSans-32"/>
       <use xlink:href="#DejaVuSans-35" transform="translate(63.623047 0)"/>
      </g>
     </g>
    </g>
    <g id="text_24">
     <!-- Time (Decimal) -->
     <g transform="translate(191.275313 321.1365) rotate(-90) scale(0.1 -0.1)">
      <defs>
       <path id="DejaVuSans-54" d="M -19 4666 
L 3928 4666 
L 3928 4134 
L 2272 4134 
L 2272 0 
L 1638 0 
L 1638 4134 
L -19 4134 
L -19 4666 
z
" transform="scale(0.015625)"/>
       <path id="DejaVuSans-28" d="M 1984 4856 
Q 1566 4138 1362 3434 
Q 1159 2731 1159 2009 
Q 1159 1288 1364 580 
Q 1569 -128 1984 -844 
L 1484 -844 
Q 1016 -109 783 600 
Q 550 1309 550 2009 
Q 550 2706 781 3412 
Q 1013 4119 1484 4856 
L 1984 4856 
z
" transform="scale(0.015625)"/>
       <path id="DejaVuSans-63" d="M 3122 3366 
L 3122 2828 
Q 2878 2963 2633 3030 
Q 2388 3097 2138 3097 
Q 1578 3097 1268 2742 
Q 959 2388 959 1747 
Q 959 1106 1268 751 
Q 1578 397 2138 397 
Q 2388 397 2633 464 
Q 2878 531 3122 666 
L 3122 134 
Q 2881 22 2623 -34 
Q 2366 -91 2075 -91 
Q 1284 -91 818 406 
Q 353 903 353 1747 
Q 353 2603 823 3093 
Q 1294 3584 2113 3584 
Q 2378 3584 2631 3529 
Q 2884 3475 3122 3366 
z
" transform="scale(0.015625)"/>
       <path id="DejaVuSans-6c" d="M 603 4863 
L 1178 4863 
L 1178 0 
L 603 0 
L 603 4863 
z
" transform="scale(0.015625)"/>
       <path id="DejaVuSans-29" d="M 513 4856 
L 1013 4856 
Q 1481 4119 1714 3412 
Q 1947 2706 1947 2009 
Q 1947 1309 1714 600 
Q 1481 -109 1013 -844 
L 513 -844 
Q 928 -128 1133 580 
Q 1338 1288 1338 2009 
Q 1338 2731 1133 3434 
Q 928 4138 513 4856 
z
" transform="scale(0.015625)"/>
      </defs>
      <use xlink:href="#DejaVuSans-54"/>
      <use xlink:href="#DejaVuSans-69" transform="translate(57.958984 0)"/>
      <use xlink:href="#DejaVuSans-6d" transform="translate(85.742188 0)"/>
      <use xlink:href="#DejaVuSans-65" transform="translate(183.154297 0)"/>
      <use xlink:href="#DejaVuSans-20" transform="translate(244.677734 0)"/>
      <use xlink:href="#DejaVuSans-28" transform="translate(276.464844 0)"/>
      <use xlink:href="#DejaVuSans-44" transform="translate(315.478516 0)"/>
      <use xlink:href="#DejaVuSans-65" transform="translate(392.480469 0)"/>
      <use xlink:href="#DejaVuSans-63" transform="translate(454.003906 0)"/>
      <use xlink:href="#DejaVuSans-69" transform="translate(508.984375 0)"/>
      <use xlink:href="#DejaVuSans-6d" transform="translate(536.767578 0)"/>
      <use xlink:href="#DejaVuSans-61" transform="translate(634.179688 0)"/>
      <use xlink:href="#DejaVuSans-6c" transform="translate(695.458984 0)"/>
      <use xlink:href="#DejaVuSans-29" transform="translate(723.242188 0)"/>
     </g>
    </g>
   </g>
   <g id="line2d_38">
    <path d="M 455.651146 539.168 
L 455.651146 26.88 
" clip-path="url(#pcba03faf91)" style="fill: none; stroke-dasharray: 5.55,2.4; stroke-dashoffset: 0; stroke: #000000; stroke-opacity: 0.5; stroke-width: 1.5"/>
   </g>
   <g id="patch_20">
    <path d="M 217.08 539.168 
L 217.08 26.88 
" style="fill: none; stroke: #000000; stroke-width: 0.8; stroke-linejoin: miter; stroke-linecap: square"/>
   </g>
   <g id="patch_21">
    <path d="M 1069.2 539.168 
L 1069.2 26.88 
" style="fill: none; stroke: #000000; stroke-width: 0.8; stroke-linejoin: miter; stroke-linecap: square"/>
   </g>
   <g id="patch_22">
    <path d="M 217.08 539.168 
L 1069.2 539.168 
" style="fill: none; stroke: #000000; stroke-width: 0.8; stroke-linejoin: miter; stroke-linecap: square"/>
   </g>
   <g id="patch_23">
    <path d="M 217.08 26.88 
L 1069.2 26.88 
" style="fill: none; stroke: #000000; stroke-width: 0.8; stroke-linejoin: miter; stroke-linecap: square"/>
   </g>
   <g id="text_25">
    <!-- Historic Breakup (with density estimates) and 2025 Predictions, N=119 -->
    <g transform="translate(429.107812 20.88) scale(0.12 -0.12)">
     <defs>
      <path id="DejaVuSans-42" d="M 1259 2228 
L 1259 519 
L 2272 519 
Q 2781 519 3026 730 
Q 3272 941 3272 1375 
Q 3272 1813 3026 2020 
Q 2781 2228 2272 2228 
L 1259 2228 
z
M 1259 4147 
L 1259 2741 
L 2194 2741 
Q 2656 2741 2882 2914 
Q 3109 3088 3109 3444 
Q 3109 3797 2882 3972 
Q 2656 4147 2194 4147 
L 1259 4147 
z
M 628 4666 
L 2241 4666 
Q 2963 4666 3353 4366 
Q 3744 4066 3744 3513 
Q 3744 3084 3544 2831 
Q 3344 2578 2956 2516 
Q 3422 2416 3680 2098 
Q 3938 1781 3938 1306 
Q 3938 681 3513 340 
Q 3088 0 2303 0 
L 628 0 
L 628 4666 
z
" transform="scale(0.015625)"/>
      <path id="DejaVuSans-6b" d="M 581 4863 
L 1159 4863 
L 1159 1991 
L 2875 3500 
L 3609 3500 
L 1753 1863 
L 3688 0 
L 2938 0 
L 1159 1709 
L 1159 0 
L 581 0 
L 581 4863 
z
" transform="scale(0.015625)"/>
      <path id="DejaVuSans-75" d="M 544 1381 
L 544 3500 
L 1119 3500 
L 1119 1403 
Q 1119 906 1312 657 
Q 1506 409 1894 409 
Q 2359 409 2629 706 
Q 2900 1003 2900 1516 
L 2900 3500 
L 3475 3500 
L 3475 0 
L 2900 0 
L 2900 538 
Q 2691 219 2414 64 
Q 2138 -91 1772 -91 
Q 1169 -91 856 284 
Q 544 659 544 1381 
z
M 1991 3584 
L 1991 3584 
z
" transform="scale(0.015625)"/>
      <path id="DejaVuSans-70" d="M 1159 525 
L 1159 -1331 
L 581 -1331 
L 581 3500 
L 1159 3500 
L 1159 2969 
Q 1341 3281 1617 3432 
Q 1894 3584 2278 3584 
Q 2916 3584 3314 3078 
Q 3713 2572 3713 1747 
Q 3713 922 3314 415 
Q 2916 -91 2278 -91 
Q 1894 -91 1617 61 
Q 1341 213 1159 525 
z
M 3116 1747 
Q 3116 2381 2855 2742 
Q 2594 3103 2138 3103 
Q 1681 3103 1420 2742 
Q 1159 2381 1159 1747 
Q 1159 1113 1420 752 
Q 1681 391 2138 391 
Q 2594 391 2855 752 
Q 3116 1113 3116 1747 
z
" transform="scale(0.015625)"/>
      <path id="DejaVuSans-77" d="M 269 3500 
L 844 3500 
L 1563 769 
L 2278 3500 
L 2956 3500 
L 3675 769 
L 4391 3500 
L 4966 3500 
L 4050 0 
L 3372 0 
L 2619 2869 
L 1863 0 
L 1184 0 
L 269 3500 
z
" transform="scale(0.015625)"/>
      <path id="DejaVuSans-68" d="M 3513 2113 
L 3513 0 
L 2938 0 
L 2938 2094 
Q 2938 2591 2744 2837 
Q 2550 3084 2163 3084 
Q 1697 3084 1428 2787 
Q 1159 2491 1159 1978 
L 1159 0 
L 581 0 
L 581 4863 
L 1159 4863 
L 1159 2956 
Q 1366 3272 1645 3428 
Q 1925 3584 2291 3584 
Q 2894 3584 3203 3211 
Q 3513 2838 3513 2113 
z
" transform="scale(0.015625)"/>
      <path id="DejaVuSans-64" d="M 2906 2969 
L 2906 4863 
L 3481 4863 
L 3481 0 
L 2906 0 
L 2906 525 
Q 2725 213 2448 61 
Q 2172 -91 1784 -91 
Q 1150 -91 751 415 
Q 353 922 353 1747 
Q 353 2572 751 3078 
Q 1150 3584 1784 3584 
Q 2172 3584 2448 3432 
Q 2725 3281 2906 2969 
z
M 947 1747 
Q 947 1113 1208 752 
Q 1469 391 1925 391 
Q 2381 391 2643 752 
Q 2906 1113 2906 1747 
Q 2906 2381 2643 2742 
Q 2381 3103 1925 3103 
Q 1469 3103 1208 2742 
Q 947 2381 947 1747 
z
" transform="scale(0.015625)"/>
      <path id="DejaVuSans-6e" d="M 3513 2113 
L 3513 0 
L 2938 0 
L 2938 2094 
Q 2938 2591 2744 2837 
Q 2550 3084 2163 3084 
Q 1697 3084 1428 2787 
Q 1159 2491 1159 1978 
L 1159 0 
L 581 0 
L 581 3500 
L 1159 3500 
L 1159 2956 
Q 1366 3272 1645 3428 
Q 1925 3584 2291 3584 
Q 2894 3584 3203 3211 
Q 3513 2838 3513 2113 
z
" transform="scale(0.015625)"/>
      <path id="DejaVuSans-50" d="M 1259 4147 
L 1259 2394 
L 2053 2394 
Q 2494 2394 2734 2622 
Q 2975 2850 2975 3272 
Q 2975 3691 2734 3919 
Q 2494 4147 2053 4147 
L 1259 4147 
z
M 628 4666 
L 2053 4666 
Q 2838 4666 3239 4311 
Q 3641 3956 3641 3272 
Q 3641 2581 3239 2228 
Q 2838 1875 2053 1875 
L 1259 1875 
L 1259 0 
L 628 0 
L 628 4666 
z
" transform="scale(0.015625)"/>
      <path id="DejaVuSans-2c" d="M 750 794 
L 1409 794 
L 1409 256 
L 897 -744 
L 494 -744 
L 750 256 
L 750 794 
z
" transform="scale(0.015625)"/>
      <path id="DejaVuSans-3d" d="M 678 2906 
L 4684 2906 
L 4684 2381 
L 678 2381 
L 678 2906 
z
M 678 1631 
L 4684 1631 
L 4684 1100 
L 678 1100 
L 678 1631 
z
" transform="scale(0.015625)"/>
      <path id="DejaVuSans-39" d="M 703 97 
L 703 672 
Q 941 559 1184 500 
Q 1428 441 1663 441 
Q 2288 441 2617 861 
Q 2947 1281 2994 2138 
Q 2813 1869 2534 1725 
Q 2256 1581 1919 1581 
Q 1219 1581 811 2004 
Q 403 2428 403 3163 
Q 403 3881 828 4315 
Q 1253 4750 1959 4750 
Q 2769 4750 3195 4129 
Q 3622 3509 3622 2328 
Q 3622 1225 3098 567 
Q 2575 -91 1691 -91 
Q 1453 -91 1209 -44 
Q 966 3 703 97 
z
M 1959 2075 
Q 2384 2075 2632 2365 
Q 2881 2656 2881 3163 
Q 2881 3666 2632 3958 
Q 2384 4250 1959 4250 
Q 1534 4250 1286 3958 
Q 1038 3666 1038 3163 
Q 1038 2656 1286 2365 
Q 1534 2075 1959 2075 
z
" transform="scale(0.015625)"/>
     </defs>
     <use xlink:href="#DejaVuSans-48"/>
     <use xlink:href="#DejaVuSans-69" transform="translate(75.195312 0)"/>
     <use xlink:href="#DejaVuSans-73" transform="translate(102.978516 0)"/>
     <use xlink:href="#DejaVuSans-74" transform="translate(155.078125 0)"/>
     <use xlink:href="#DejaVuSans-6f" transform="translate(194.287109 0)"/>
     <use xlink:href="#DejaVuSans-72" transform="translate(255.46875 0)"/>
     <use xlink:href="#DejaVuSans-69" transform="translate(296.582031 0)"/>
     <use xlink:href="#DejaVuSans-63" transform="translate(324.365234 0)"/>
     <use xlink:href="#DejaVuSans-20" transform="translate(379.345703 0)"/>
     <use xlink:href="#DejaVuSans-42" transform="translate(411.132812 0)"/>
     <use xlink:href="#DejaVuSans-72" transform="translate(479.736328 0)"/>
     <use xlink:href="#DejaVuSans-65" transform="translate(518.599609 0)"/>
     <use xlink:href="#DejaVuSans-61" transform="translate(580.123047 0)"/>
     <use xlink:href="#DejaVuSans-6b" transform="translate(641.402344 0)"/>
     <use xlink:href="#DejaVuSans-75" transform="translate(696.1875 0)"/>
     <use xlink:href="#DejaVuSans-70" transform="translate(759.566406 0)"/>
     <use xlink:href="#DejaVuSans-20" transform="translate(823.042969 0)"/>
     <use xlink:href="#DejaVuSans-28" transform="translate(854.830078 0)"/>
     <use xlink:href="#DejaVuSans-77" transform="translate(893.84375 0)"/>
     <use xlink:href="#DejaVuSans-69" transform="translate(975.630859 0)"/>
     <use xlink:href="#DejaVuSans-74" transform="translate(1003.414062 0)"/>
     <use xlink:href="#DejaVuSans-68" transform="translate(1042.623047 0)"/>
     <use xlink:href="#DejaVuSans-20" transform="translate(1106.001953 0)"/>
     <use xlink:href="#DejaVuSans-64" transform="translate(1137.789062 0)"/>
     <use xlink:href="#DejaVuSans-65" transform="translate(1201.265625 0)"/>
     <use xlink:href="#DejaVuSans-6e" transform="translate(1262.789062 0)"/>
     <use xlink:href="#DejaVuSans-73" transform="translate(1326.167969 0)"/>
     <use xlink:href="#DejaVuSans-69" transform="translate(1378.267578 0)"/>
     <use xlink:href="#DejaVuSans-74" transform="translate(1406.050781 0)"/>
     <use xlink:href="#DejaVuSans-79" transform="translate(1445.259766 0)"/>
     <use xlink:href="#DejaVuSans-20" transform="translate(1504.439453 0)"/>
     <use xlink:href="#DejaVuSans-65" transform="translate(1536.226562 0)"/>
     <use xlink:href="#DejaVuSans-73" transform="translate(1597.75 0)"/>
     <use xlink:href="#DejaVuSans-74" transform="translate(1649.849609 0)"/>
     <use xlink:href="#DejaVuSans-69" transform="translate(1689.058594 0)"/>
     <use xlink:href="#DejaVuSans-6d" transform="translate(1716.841797 0)"/>
     <use xlink:href="#DejaVuSans-61" transform="translate(1814.253906 0)"/>
     <use xlink:href="#DejaVuSans-74" transform="translate(1875.533203 0)"/>
     <use xlink:href="#DejaVuSans-65" transform="translate(1914.742188 0)"/>
     <use xlink:href="#DejaVuSans-73" transform="translate(1976.265625 0)"/>
     <use xlink:href="#DejaVuSans-29" transform="translate(2028.365234 0)"/>
     <use xlink:href="#DejaVuSans-20" transform="translate(2067.378906 0)"/>
     <use xlink:href="#DejaVuSans-61" transform="translate(2099.166016 0)"/>
     <use xlink:href="#DejaVuSans-6e" transform="translate(2160.445312 0)"/>
     <use xlink:href="#DejaVuSans-64" transform="translate(2223.824219 0)"/>
     <use xlink:href="#DejaVuSans-20" transform="translate(2287.300781 0)"/>
     <use xlink:href="#DejaVuSans-32" transform="translate(2319.087891 0)"/>
     <use xlink:href="#DejaVuSans-30" transform="translate(2382.710938 0)"/>
     <use xlink:href="#DejaVuSans-32" transform="translate(2446.333984 0)"/>
     <use xlink:href="#DejaVuSans-35" transform="translate(2509.957031 0)"/>
     <use xlink:href="#DejaVuSans-20" transform="translate(2573.580078 0)"/>
     <use xlink:href="#DejaVuSans-50" transform="translate(2605.367188 0)"/>
     <use xlink:href="#DejaVuSans-72" transform="translate(2663.919922 0)"/>
     <use xlink:href="#DejaVuSans-65" transform="translate(2702.783203 0)"/>
     <use xlink:href="#DejaVuSans-64" transform="translate(2764.306641 0)"/>
     <use xlink:href="#DejaVuSans-69" transform="translate(2827.783203 0)"/>
     <use xlink:href="#DejaVuSans-63" transform="translate(2855.566406 0)"/>
     <use xlink:href="#DejaVuSans-74" transform="translate(2910.546875 0)"/>
     <use xlink:href="#DejaVuSans-69" transform="translate(2949.755859 0)"/>
     <use xlink:href="#DejaVuSans-6f" transform="translate(2977.539062 0)"/>
     <use xlink:href="#DejaVuSans-6e" transform="translate(3038.720703 0)"/>
     <use xlink:href="#DejaVuSans-73" transform="translate(3102.099609 0)"/>
     <use xlink:href="#DejaVuSans-2c" transform="translate(3154.199219 0)"/>
     <use xlink:href="#DejaVuSans-20" transform="translate(3185.986328 0)"/>
     <use xlink:href="#DejaVuSans-4e" transform="translate(3217.773438 0)"/>
     <use xlink:href="#DejaVuSans-3d" transform="translate(3292.578125 0)"/>
     <use xlink:href="#DejaVuSans-31" transform="translate(3376.367188 0)"/>
     <use xlink:href="#DejaVuSans-31" transform="translate(3439.990234 0)"/>
     <use xlink:href="#DejaVuSans-39" transform="translate(3503.613281 0)"/>
    </g>
   </g>
   <g id="legend_2">
    <g id="patch_24">
     <path d="M 946.326562 78.914375 
L 1062.2 78.914375 
Q 1064.2 78.914375 1064.2 76.914375 
L 1064.2 33.88 
Q 1064.2 31.88 1062.2 31.88 
L 946.326562 31.88 
Q 944.326562 31.88 944.326562 33.88 
L 944.326562 76.914375 
Q 944.326562 78.914375 946.326562 78.914375 
z
" style="fill: #ffffff; opacity: 0.8; stroke: #cccccc; stroke-linejoin: miter"/>
    </g>
    <g id="PathCollection_3">
     <g>
      <use xlink:href="#m790169b2b5" x="958.326562" y="40.853438" style="fill: #ff0000; stroke: #000000"/>
     </g>
    </g>
    <g id="text_26">
     <!-- 2025 Predictions -->
     <g transform="translate(976.326562 43.478438) scale(0.1 -0.1)">
      <use xlink:href="#DejaVuSans-32"/>
      <use xlink:href="#DejaVuSans-30" transform="translate(63.623047 0)"/>
      <use xlink:href="#DejaVuSans-32" transform="translate(127.246094 0)"/>
      <use xlink:href="#DejaVuSans-35" transform="translate(190.869141 0)"/>
      <use xlink:href="#DejaVuSans-20" transform="translate(254.492188 0)"/>
      <use xlink:href="#DejaVuSans-50" transform="translate(286.279297 0)"/>
      <use xlink:href="#DejaVuSans-72" transform="translate(344.832031 0)"/>
      <use xlink:href="#DejaVuSans-65" transform="translate(383.695312 0)"/>
      <use xlink:href="#DejaVuSans-64" transform="translate(445.21875 0)"/>
      <use xlink:href="#DejaVuSans-69" transform="translate(508.695312 0)"/>
      <use xlink:href="#DejaVuSans-63" transform="translate(536.478516 0)"/>
      <use xlink:href="#DejaVuSans-74" transform="translate(591.458984 0)"/>
      <use xlink:href="#DejaVuSans-69" transform="translate(630.667969 0)"/>
      <use xlink:href="#DejaVuSans-6f" transform="translate(658.451172 0)"/>
      <use xlink:href="#DejaVuSans-6e" transform="translate(719.632812 0)"/>
      <use xlink:href="#DejaVuSans-73" transform="translate(783.011719 0)"/>
     </g>
    </g>
    <g id="PathCollection_4">
     <g>
      <use xlink:href="#ma940a46afe" x="958.326562" y="55.531563" style="fill: #808080; stroke: #000000"/>
     </g>
    </g>
    <g id="text_27">
     <!-- Historic Breakup -->
     <g transform="translate(976.326562 58.156563) scale(0.1 -0.1)">
      <use xlink:href="#DejaVuSans-48"/>
      <use xlink:href="#DejaVuSans-69" transform="translate(75.195312 0)"/>
      <use xlink:href="#DejaVuSans-73" transform="translate(102.978516 0)"/>
      <use xlink:href="#DejaVuSans-74" transform="translate(155.078125 0)"/>
      <use xlink:href="#DejaVuSans-6f" transform="translate(194.287109 0)"/>
      <use xlink:href="#DejaVuSans-72" transform="translate(255.46875 0)"/>
      <use xlink:href="#DejaVuSans-69" transform="translate(296.582031 0)"/>
      <use xlink:href="#DejaVuSans-63" transform="translate(324.365234 0)"/>
      <use xlink:href="#DejaVuSans-20" transform="translate(379.345703 0)"/>
      <use xlink:href="#DejaVuSans-42" transform="translate(411.132812 0)"/>
      <use xlink:href="#DejaVuSans-72" transform="translate(479.736328 0)"/>
      <use xlink:href="#DejaVuSans-65" transform="translate(518.599609 0)"/>
      <use xlink:href="#DejaVuSans-61" transform="translate(580.123047 0)"/>
      <use xlink:href="#DejaVuSans-6b" transform="translate(641.402344 0)"/>
      <use xlink:href="#DejaVuSans-75" transform="translate(696.1875 0)"/>
      <use xlink:href="#DejaVuSans-70" transform="translate(759.566406 0)"/>
     </g>
    </g>
    <g id="line2d_39">
     <path d="M 948.326562 69.334688 
L 958.326562 69.334688 
L 968.326562 69.334688 
" style="fill: none; stroke-dasharray: 5.55,2.4; stroke-dashoffset: 0; stroke: #000000; stroke-opacity: 0.5; stroke-width: 1.5"/>
    </g>
    <g id="text_28">
     <!-- Betting Deadline -->
     <g transform="translate(976.326562 72.834688) scale(0.1 -0.1)">
      <use xlink:href="#DejaVuSans-42"/>
      <use xlink:href="#DejaVuSans-65" transform="translate(68.603516 0)"/>
      <use xlink:href="#DejaVuSans-74" transform="translate(130.126953 0)"/>
      <use xlink:href="#DejaVuSans-74" transform="translate(169.335938 0)"/>
      <use xlink:href="#DejaVuSans-69" transform="translate(208.544922 0)"/>
      <use xlink:href="#DejaVuSans-6e" transform="translate(236.328125 0)"/>
      <use xlink:href="#DejaVuSans-67" transform="translate(299.707031 0)"/>
      <use xlink:href="#DejaVuSans-20" transform="translate(363.183594 0)"/>
      <use xlink:href="#DejaVuSans-44" transform="translate(394.970703 0)"/>
      <use xlink:href="#DejaVuSans-65" transform="translate(471.972656 0)"/>
      <use xlink:href="#DejaVuSans-61" transform="translate(533.496094 0)"/>
      <use xlink:href="#DejaVuSans-64" transform="translate(594.775391 0)"/>
      <use xlink:href="#DejaVuSans-6c" transform="translate(658.251953 0)"/>
      <use xlink:href="#DejaVuSans-69" transform="translate(686.035156 0)"/>
      <use xlink:href="#DejaVuSans-6e" transform="translate(713.818359 0)"/>
      <use xlink:href="#DejaVuSans-65" transform="translate(777.197266 0)"/>
     </g>
    </g>
   </g>
  </g>
  <g id="axes_3"/>
  <g id="axes_4">
   <g id="patch_25">
    <path d="M 217.08 709.2 
L 1069.2 709.2 
L 1069.2 581.128 
L 217.08 581.128 
z
" style="fill: #ffffff"/>
   </g>
   <g id="patch_26">
    <path d="M 487.086403 581.128 
L 494.63903 581.128 
L 494.63903 586.611336 
L 487.086403 586.611336 
z
" clip-path="url(#p4cc7935301)" style="fill: #808080; opacity: 0.5"/>
   </g>
   <g id="patch_27">
    <path d="M 494.63903 581.128 
L 502.191656 581.128 
L 502.191656 586.611336 
L 494.63903 586.611336 
z
" clip-path="url(#p4cc7935301)" style="fill: #808080; opacity: 0.5"/>
   </g>
   <g id="patch_28">
    <path d="M 502.191656 581.128 
L 509.744283 581.128 
L 509.744283 614.028017 
L 502.191656 614.028017 
z
" clip-path="url(#p4cc7935301)" style="fill: #808080; opacity: 0.5"/>
   </g>
   <g id="patch_29">
    <path d="M 509.744283 581.128 
L 517.29691 581.128 
L 517.29691 608.544681 
L 509.744283 608.544681 
z
" clip-path="url(#p4cc7935301)" style="fill: #808080; opacity: 0.5"/>
   </g>
   <g id="patch_30">
    <path d="M 517.29691 581.128 
L 524.849536 581.128 
L 524.849536 701.761395 
L 517.29691 701.761395 
z
" clip-path="url(#p4cc7935301)" style="fill: #808080; opacity: 0.5"/>
   </g>
   <g id="patch_31">
    <path d="M 524.849536 581.128 
L 532.402163 581.128 
L 532.402163 696.278059 
L 524.849536 696.278059 
z
" clip-path="url(#p4cc7935301)" style="fill: #808080; opacity: 0.5"/>
   </g>
   <g id="patch_32">
    <path d="M 532.402163 581.128 
L 539.95479 581.128 
L 539.95479 679.828051 
L 532.402163 679.828051 
z
" clip-path="url(#p4cc7935301)" style="fill: #808080; opacity: 0.5"/>
   </g>
   <g id="patch_33">
    <path d="M 539.95479 581.128 
L 547.507416 581.128 
L 547.507416 663.378042 
L 539.95479 663.378042 
z
" clip-path="url(#p4cc7935301)" style="fill: #808080; opacity: 0.5"/>
   </g>
   <g id="patch_34">
    <path d="M 547.507416 581.128 
L 555.060043 581.128 
L 555.060043 652.41137 
L 547.507416 652.41137 
z
" clip-path="url(#p4cc7935301)" style="fill: #808080; opacity: 0.5"/>
   </g>
   <g id="patch_35">
    <path d="M 555.060043 581.128 
L 562.61267 581.128 
L 562.61267 597.578008 
L 555.060043 597.578008 
z
" clip-path="url(#p4cc7935301)" style="fill: #808080; opacity: 0.5"/>
   </g>
   <g id="patch_36">
    <path d="M 562.61267 581.128 
L 570.165296 581.128 
L 570.165296 592.094672 
L 562.61267 592.094672 
z
" clip-path="url(#p4cc7935301)" style="fill: #808080; opacity: 0.5"/>
   </g>
   <g id="matplotlib.axis_5"/>
   <g id="matplotlib.axis_6">
    <g id="text_29">
     <!-- Density -->
     <g transform="translate(211.000313 664.172594) rotate(-90) scale(0.1 -0.1)">
      <use xlink:href="#DejaVuSans-44"/>
      <use xlink:href="#DejaVuSans-65" transform="translate(77.001953 0)"/>
      <use xlink:href="#DejaVuSans-6e" transform="translate(138.525391 0)"/>
      <use xlink:href="#DejaVuSans-73" transform="translate(201.904297 0)"/>
      <use xlink:href="#DejaVuSans-69" transform="translate(254.003906 0)"/>
      <use xlink:href="#DejaVuSans-74" transform="translate(281.787109 0)"/>
      <use xlink:href="#DejaVuSans-79" transform="translate(320.996094 0)"/>
     </g>
    </g>
   </g>
   <g id="line2d_40">
    <path d="M 487.086403 582.140464 
L 489.250783 582.717672 
L 491.082182 583.416377 
L 492.747089 584.271015 
L 494.411997 585.388242 
L 495.910414 586.666769 
L 497.408831 588.25243 
L 498.907248 590.194608 
L 500.405665 592.543565 
L 501.904082 595.348269 
L 503.402498 598.653729 
L 504.900915 602.497886 
L 506.565823 607.433914 
L 508.230731 613.085555 
L 510.062129 620.115585 
L 512.060018 628.685667 
L 514.55738 640.486501 
L 518.719649 661.529656 
L 521.716483 676.181679 
L 523.714372 684.910071 
L 525.37928 691.183736 
L 526.711206 695.383893 
L 527.876641 698.375204 
L 528.875586 700.386093 
L 529.70804 701.64999 
L 530.540494 702.526121 
L 531.206457 702.941918 
L 531.87242 703.101333 
L 532.538383 703.003358 
L 533.204346 702.648613 
L 533.870309 702.039338 
L 534.702763 700.925813 
L 535.535217 699.431607 
L 536.534161 697.156763 
L 537.699597 693.878978 
L 539.031523 689.385612 
L 540.52994 683.505514 
L 542.361338 675.372675 
L 544.8587 663.174791 
L 551.35184 630.925335 
L 553.51622 621.450736 
L 555.514109 613.662773 
L 557.345507 607.410257 
L 559.010415 602.477408 
L 560.675323 598.243042 
L 562.17374 594.997821 
L 563.672156 592.24843 
L 565.170573 589.949251 
L 566.66899 588.051036 
L 568.167407 586.503525 
L 569.665824 585.257553 
L 570.165296 584.901104 
L 570.165296 584.901104 
" clip-path="url(#p4cc7935301)" style="fill: none; stroke: #0000ff; stroke-width: 1.5; stroke-linecap: square"/>
   </g>
   <g id="line2d_41">
    <path d="M 487.086403 584.274637 
L 490.416219 584.529535 
L 492.247617 584.813448 
L 493.579543 585.249689 
L 494.744978 585.860357 
L 495.910414 586.726629 
L 497.075849 587.875194 
L 498.241285 589.32118 
L 499.573211 591.345472 
L 500.905137 593.764637 
L 502.403554 596.944392 
L 504.068462 601.012103 
L 505.89986 606.080744 
L 507.897749 612.300031 
L 509.729148 618.770008 
L 511.227565 624.838527 
L 512.725981 631.844847 
L 514.224398 639.938029 
L 516.055797 651.18867 
L 520.218066 677.408044 
L 521.383501 683.143827 
L 522.382446 687.017679 
L 523.2149 689.436963 
L 523.880863 690.837601 
L 524.546826 691.782008 
L 525.212789 692.305188 
L 525.712261 692.449905 
L 526.211734 692.409081 
L 526.877697 692.112105 
L 527.710151 691.443951 
L 528.875586 690.179357 
L 531.539438 687.18362 
L 533.037855 685.885275 
L 536.700652 682.953094 
L 537.699597 681.757455 
L 538.698541 680.235257 
L 539.863977 677.994469 
L 541.029412 675.243988 
L 542.361338 671.523669 
L 544.026246 666.154104 
L 546.024135 658.923627 
L 548.521497 649.00859 
L 551.35184 636.833762 
L 557.345507 610.640671 
L 559.010415 604.531258 
L 560.342341 600.367383 
L 561.674267 596.928165 
L 562.839703 594.520922 
L 564.005138 592.637183 
L 565.170573 591.202603 
L 566.336009 590.11679 
L 567.834426 589.053743 
L 570.165296 587.680946 
L 570.165296 587.680946 
" clip-path="url(#p4cc7935301)" style="fill: none; stroke: #ff0000; stroke-opacity: 0.3; stroke-width: 1.5; stroke-linecap: square"/>
   </g>
   <g id="patch_37">
    <path d="M 217.08 709.2 
L 217.08 581.128 
" style="fill: none; stroke: #000000; stroke-width: 0.8; stroke-linejoin: miter; stroke-linecap: square"/>
   </g>
   <g id="patch_38">
    <path d="M 1069.2 709.2 
L 1069.2 581.128 
" style="fill: none; stroke: #000000; stroke-width: 0.8; stroke-linejoin: miter; stroke-linecap: square"/>
   </g>
   <g id="patch_39">
    <path d="M 217.08 709.2 
L 1069.2 709.2 
" style="fill: none; stroke: #000000; stroke-width: 0.8; stroke-linejoin: miter; stroke-linecap: square"/>
   </g>
   <g id="patch_40">
    <path d="M 217.08 581.128 
L 1069.2 581.128 
" style="fill: none; stroke: #000000; stroke-width: 0.8; stroke-linejoin: miter; stroke-linecap: square"/>
   </g>
   <g id="legend_3">
    <g id="patch_41">
     <path d="M 946.835937 633.162375 
L 1062.2 633.162375 
Q 1064.2 633.162375 1064.2 631.162375 
L 1064.2 588.128 
Q 1064.2 586.128 1062.2 586.128 
L 946.835937 586.128 
Q 944.835937 586.128 944.835937 588.128 
L 944.835937 631.162375 
Q 944.835937 633.162375 946.835937 633.162375 
z
" style="fill: #ffffff; opacity: 0.8; stroke: #cccccc; stroke-linejoin: miter"/>
    </g>
    <g id="patch_42">
     <path d="M 948.835937 597.726438 
L 968.835937 597.726438 
L 968.835937 590.726438 
L 948.835937 590.726438 
z
" style="fill: #808080; opacity: 0.5"/>
    </g>
    <g id="text_30">
     <!-- Histogram -->
     <g transform="translate(976.835937 597.726438) scale(0.1 -0.1)">
      <use xlink:href="#DejaVuSans-48"/>
      <use xlink:href="#DejaVuSans-69" transform="translate(75.195312 0)"/>
      <use xlink:href="#DejaVuSans-73" transform="translate(102.978516 0)"/>
      <use xlink:href="#DejaVuSans-74" transform="translate(155.078125 0)"/>
      <use xlink:href="#DejaVuSans-6f" transform="translate(194.287109 0)"/>
      <use xlink:href="#DejaVuSans-67" transform="translate(255.46875 0)"/>
      <use xlink:href="#DejaVuSans-72" transform="translate(318.945312 0)"/>
      <use xlink:href="#DejaVuSans-61" transform="translate(360.058594 0)"/>
      <use xlink:href="#DejaVuSans-6d" transform="translate(421.337891 0)"/>
     </g>
    </g>
    <g id="line2d_42">
     <path d="M 948.835937 608.904563 
L 958.835937 608.904563 
L 968.835937 608.904563 
" style="fill: none; stroke: #0000ff; stroke-width: 1.5; stroke-linecap: square"/>
    </g>
    <g id="text_31">
     <!-- Normal estimate -->
     <g transform="translate(976.835937 612.404563) scale(0.1 -0.1)">
      <use xlink:href="#DejaVuSans-4e"/>
      <use xlink:href="#DejaVuSans-6f" transform="translate(74.804688 0)"/>
      <use xlink:href="#DejaVuSans-72" transform="translate(135.986328 0)"/>
      <use xlink:href="#DejaVuSans-6d" transform="translate(175.349609 0)"/>
      <use xlink:href="#DejaVuSans-61" transform="translate(272.761719 0)"/>
      <use xlink:href="#DejaVuSans-6c" transform="translate(334.041016 0)"/>
      <use xlink:href="#DejaVuSans-20" transform="translate(361.824219 0)"/>
      <use xlink:href="#DejaVuSans-65" transform="translate(393.611328 0)"/>
      <use xlink:href="#DejaVuSans-73" transform="translate(455.134766 0)"/>
      <use xlink:href="#DejaVuSans-74" transform="translate(507.234375 0)"/>
      <use xlink:href="#DejaVuSans-69" transform="translate(546.443359 0)"/>
      <use xlink:href="#DejaVuSans-6d" transform="translate(574.226562 0)"/>
      <use xlink:href="#DejaVuSans-61" transform="translate(671.638672 0)"/>
      <use xlink:href="#DejaVuSans-74" transform="translate(732.917969 0)"/>
      <use xlink:href="#DejaVuSans-65" transform="translate(772.126953 0)"/>
     </g>
    </g>
    <g id="line2d_43">
     <path d="M 948.835937 623.582688 
L 958.835937 623.582688 
L 968.835937 623.582688 
" style="fill: none; stroke: #ff0000; stroke-opacity: 0.3; stroke-width: 1.5; stroke-linecap: square"/>
    </g>
    <g id="text_32">
     <!-- KDE Estimate -->
     <g transform="translate(976.835937 627.082688) scale(0.1 -0.1)">
      <use xlink:href="#DejaVuSans-4b"/>
      <use xlink:href="#DejaVuSans-44" transform="translate(65.576172 0)"/>
      <use xlink:href="#DejaVuSans-45" transform="translate(142.578125 0)"/>
      <use xlink:href="#DejaVuSans-20" transform="translate(205.761719 0)"/>
      <use xlink:href="#DejaVuSans-45" transform="translate(237.548828 0)"/>
      <use xlink:href="#DejaVuSans-73" transform="translate(300.732422 0)"/>
      <use xlink:href="#DejaVuSans-74" transform="translate(352.832031 0)"/>
      <use xlink:href="#DejaVuSans-69" transform="translate(392.041016 0)"/>
      <use xlink:href="#DejaVuSans-6d" transform="translate(419.824219 0)"/>
      <use xlink:href="#DejaVuSans-61" transform="translate(517.236328 0)"/>
      <use xlink:href="#DejaVuSans-74" transform="translate(578.515625 0)"/>
      <use xlink:href="#DejaVuSans-65" transform="translate(617.724609 0)"/>
     </g>
    </g>
   </g>
  </g>
 </g>
 <defs>
  <clipPath id="pbf2ea7e09d">
   <rect x="30.49" y="26.88" width="142.02" height="512.288"/>
  </clipPath>
  <clipPath id="pcba03faf91">
   <rect x="217.08" y="26.88" width="852.12" height="512.288"/>
  </clipPath>
  <clipPath id="p4cc7935301">
   <rect x="217.08" y="581.128" width="852.12" height="128.072"/>
  </clipPath>
 </defs>
</svg>
